<svg id="Layer_1" data-name="Layer 1" xmlns="http://www.w3.org/2000/svg" viewBox="0 0 230.4 231.96"><defs><style>.cls-1{fill:#5c5c5c;}.cls-2{fill:none;}</style></defs><path class="cls-1" d="M32.82,43.94H49.35q8.06,0,12.1,4.33t4,12.68V95.77c0,5.58-1.35,9.8-4,12.69s-6.73,4.33-12.1,4.33H32.82Zm16.33,59a5.22,5.22,0,0,0,4.08-1.57q1.43-1.57,1.43-5.12V60.46q0-3.54-1.43-5.11a5.22,5.22,0,0,0-4.08-1.57H43.64V103Z"/><path class="cls-1" d="M76.2,109.25Q72,104.72,72,96.46V60.27Q72,52,76.2,47.48T88.39,43q8,0,12.2,4.52t4.23,12.79V96.46q0,8.27-4.23,12.79t-12.2,4.52Q80.43,113.77,76.2,109.25ZM94,97.15V59.58q0-6.8-5.61-6.79t-5.6,6.79V97.15q0,6.78,5.6,6.78T94,97.15Z"/><path class="cls-1" d="M112.1,43.94h15.44l6.88,49.27h.2l6.88-49.27h15.44v68.85H146.72V60.66h-.2l-7.87,52.13H129.6l-7.87-52.13h-.19v52.13H112.1Z"/><path class="cls-1" d="M168.45,109.25q-4.23-4.53-4.23-12.79V60.27q0-8.27,4.23-12.79T180.65,43q8,0,12.19,4.52t4.23,12.79V96.46q0,8.27-4.23,12.79t-12.19,4.52Q172.67,113.77,168.45,109.25Zm17.8-12.1V59.58q0-6.8-5.6-6.79T175,59.58V97.15q0,6.78,5.61,6.78T186.25,97.15Z"/><path class="cls-1" d="M32.81,119.17H49q8.22,0,12.33,4.33c2.74,2.89,4.11,7.11,4.11,12.69V143q0,8.37-4.11,12.69T49,160H43.83v28h-11Zm16.23,31a5.24,5.24,0,0,0,4.06-1.47c.9-1,1.36-2.66,1.36-5V135.5c0-2.36-.46-4-1.36-5A5.24,5.24,0,0,0,49,129H43.83v21.14Z"/><path class="cls-1" d="M76.19,184.48Q72,180,72,171.69V135.5q0-8.26,4.23-12.79t12.2-4.52q8,0,12.19,4.52t4.23,12.79v36.19q0,8.26-4.23,12.79T88.39,189Q80.43,189,76.19,184.48ZM94,172.38V134.81q0-6.78-5.6-6.79t-5.61,6.79v37.57q0,6.78,5.61,6.79T94,172.38Z"/><path class="cls-1" d="M112,119.17h9.56v59h19.07V188H112Z"/><path class="cls-1" d="M146.53,119.17h10.4V188h-10.4Z"/><path class="cls-1" d="M169,184.53c-2.69-3-4-7.26-4-12.84v-3.93H175.2v4.72q0,6.69,5.61,6.69a5.25,5.25,0,0,0,4.18-1.63q1.42-1.62,1.42-5.26a14.6,14.6,0,0,0-2-7.62,36.5,36.5,0,0,0-7.28-7.92q-6.69-5.9-9.34-10.67a21.77,21.77,0,0,1-2.66-10.77q0-8.16,4.13-12.64t12-4.47q7.77,0,11.75,4.47t4,12.84v2.85H186.81v-3.54q0-3.54-1.38-5.16a5,5,0,0,0-4-1.63q-5.42,0-5.41,6.59a13,13,0,0,0,2,7,38.41,38.41,0,0,0,7.32,7.86q6.79,5.91,9.35,10.72a23.9,23.9,0,0,1,2.55,11.32q0,8.46-4.18,13T180.91,189Q173,189,169,184.53Z"/><polygon class="cls-2" points="151.14 216.96 151.14 221.74 220.96 221.74 220.96 10.22 9.44 10.22 9.44 221.74 77.26 221.74 77.26 216.96 151.14 216.96"/><polygon class="cls-1" points="225.96 5.22 4.44 5.22 4.44 226.74 77.26 226.74 77.26 221.74 9.44 221.74 9.44 10.22 220.96 10.22 220.96 221.74 151.14 221.74 151.14 226.74 225.96 226.74 225.96 5.22"/></svg>