<svg width="18" height="18" viewBox="0 0 18 18" fill="none" xmlns="http://www.w3.org/2000/svg">
<path d="M12.6376 17.7497H5.36261C4.5399 17.7803 3.73837 17.4849 3.13216 16.9279C2.52596 16.3708 2.16407 15.5971 2.12512 14.7747V10.8747C2.12512 10.709 2.19096 10.55 2.30817 10.4328C2.42538 10.3156 2.58435 10.2497 2.75012 10.2497C2.91588 10.2497 3.07485 10.3156 3.19206 10.4328C3.30927 10.55 3.37511 10.709 3.37511 10.8747V14.7747C3.41353 15.2656 3.64351 15.7217 4.01539 16.0445C4.38727 16.3672 4.87118 16.5308 5.36261 16.4997H12.6376C13.129 16.5308 13.613 16.3672 13.9848 16.0445C14.3567 15.7217 14.5867 15.2656 14.6251 14.7747V10.8747C14.6251 10.709 14.691 10.55 14.8082 10.4328C14.9254 10.3156 15.0844 10.2497 15.2501 10.2497C15.4159 10.2497 15.5748 10.3156 15.6921 10.4328C15.8093 10.55 15.8751 10.709 15.8751 10.8747V14.7747C15.8362 15.5971 15.4743 16.3708 14.8681 16.9279C14.2619 17.4849 13.4603 17.7803 12.6376 17.7497ZM17.5689 9.44347C17.6274 9.38537 17.6739 9.31624 17.7057 9.24008C17.7374 9.16392 17.7537 9.08222 17.7537 8.99972C17.7537 8.91721 17.7374 8.83552 17.7057 8.75936C17.6739 8.6832 17.6274 8.61407 17.5689 8.55597L9.44386 0.430968C9.38576 0.372387 9.31664 0.325891 9.24047 0.294161C9.16431 0.26243 9.08262 0.246094 9.00011 0.246094C8.91761 0.246094 8.83591 0.26243 8.75975 0.294161C8.68359 0.325891 8.61446 0.372387 8.55636 0.430968L0.431366 8.55597C0.313676 8.67366 0.247559 8.83328 0.247559 8.99972C0.247559 9.16616 0.313676 9.32578 0.431366 9.44347C0.549056 9.56116 0.708677 9.62727 0.875116 9.62727C1.04155 9.62727 1.20118 9.56116 1.31887 9.44347L9.00011 1.75597L16.6814 9.44347C16.7395 9.50205 16.8086 9.54854 16.8848 9.58028C16.9609 9.61201 17.0426 9.62834 17.1251 9.62834C17.2076 9.62834 17.2893 9.61201 17.3655 9.58028C17.4416 9.54854 17.5108 9.50205 17.5689 9.44347Z" fill="#51A62D"/>
</svg>
