<svg width="85" height="17" viewBox="0 0 85 17" fill="none" xmlns="http://www.w3.org/2000/svg">
<path d="M8.11958 1.17082C8.23932 0.802296 8.76068 0.802296 8.88042 1.17082L10.3186 5.59696C10.3721 5.76177 10.5257 5.87336 10.699 5.87336L15.3529 5.87336C15.7404 5.87336 15.9015 6.3692 15.588 6.59696L11.8229 9.33247C11.6827 9.43433 11.6241 9.61487 11.6776 9.77968L13.1158 14.2058C13.2355 14.5743 12.8137 14.8808 12.5002 14.653L8.73511 11.9175C8.59492 11.8157 8.40508 11.8157 8.26489 11.9175L4.49978 14.653C4.1863 14.8808 3.76451 14.5743 3.88425 14.2058L5.32239 9.77968C5.37594 9.61487 5.31728 9.43433 5.17708 9.33247L1.41198 6.59696C1.09849 6.3692 1.2596 5.87336 1.64709 5.87336L6.30101 5.87336C6.4743 5.87336 6.62789 5.76177 6.68144 5.59696L8.11958 1.17082Z" fill="#DDE1E4"/>
<path d="M25.1196 1.17082C25.2393 0.802296 25.7607 0.802296 25.8804 1.17082L27.3186 5.59696C27.3721 5.76177 27.5257 5.87336 27.699 5.87336L32.3529 5.87336C32.7404 5.87336 32.9015 6.3692 32.588 6.59696L28.8229 9.33247C28.6827 9.43433 28.6241 9.61487 28.6776 9.77968L30.1158 14.2058C30.2355 14.5743 29.8137 14.8808 29.5002 14.653L25.7351 11.9175C25.5949 11.8157 25.4051 11.8157 25.2649 11.9175L21.4998 14.653C21.1863 14.8808 20.7645 14.5743 20.8842 14.2058L22.3224 9.77968C22.3759 9.61487 22.3173 9.43433 22.1771 9.33247L18.412 6.59696C18.0985 6.3692 18.2596 5.87336 18.6471 5.87336L23.301 5.87336C23.4743 5.87336 23.6279 5.76177 23.6814 5.59696L25.1196 1.17082Z" fill="#DDE1E4"/>
<path d="M42.1196 1.17082C42.2393 0.802296 42.7607 0.802296 42.8804 1.17082L44.3186 5.59696C44.3721 5.76177 44.5257 5.87336 44.699 5.87336L49.3529 5.87336C49.7404 5.87336 49.9015 6.3692 49.588 6.59696L45.8229 9.33247C45.6827 9.43433 45.6241 9.61487 45.6776 9.77968L47.1158 14.2058C47.2355 14.5743 46.8137 14.8808 46.5002 14.653L42.7351 11.9175C42.5949 11.8157 42.4051 11.8157 42.2649 11.9175L38.4998 14.653C38.1863 14.8808 37.7645 14.5743 37.8842 14.2058L39.3224 9.77968C39.3759 9.61487 39.3173 9.43433 39.1771 9.33247L35.412 6.59696C35.0985 6.3692 35.2596 5.87336 35.6471 5.87336L40.301 5.87336C40.4743 5.87336 40.6279 5.76177 40.6814 5.59696L42.1196 1.17082Z" fill="#DDE1E4"/>
<path d="M59.1196 1.17082C59.2393 0.802296 59.7607 0.802296 59.8804 1.17082L61.3186 5.59696C61.3721 5.76177 61.5257 5.87336 61.699 5.87336L66.3529 5.87336C66.7404 5.87336 66.9015 6.3692 66.588 6.59696L62.8229 9.33247C62.6827 9.43433 62.6241 9.61487 62.6776 9.77968L64.1158 14.2058C64.2355 14.5743 63.8137 14.8808 63.5002 14.653L59.7351 11.9175C59.5949 11.8157 59.4051 11.8157 59.2649 11.9175L55.4998 14.653C55.1863 14.8808 54.7645 14.5743 54.8842 14.2058L56.3224 9.77968C56.3759 9.61487 56.3173 9.43433 56.1771 9.33247L52.412 6.59696C52.0985 6.3692 52.2596 5.87336 52.6471 5.87336L57.301 5.87336C57.4743 5.87336 57.6279 5.76177 57.6814 5.59696L59.1196 1.17082Z" fill="#DDE1E4"/>
<path d="M76.1196 1.17082C76.2393 0.802296 76.7607 0.802296 76.8804 1.17082L78.3186 5.59696C78.3721 5.76177 78.5257 5.87336 78.699 5.87336L83.3529 5.87336C83.7404 5.87336 83.9015 6.3692 83.588 6.59696L79.8229 9.33247C79.6827 9.43433 79.6241 9.61487 79.6776 9.77968L81.1158 14.2058C81.2355 14.5743 80.8137 14.8808 80.5002 14.653L76.7351 11.9175C76.5949 11.8157 76.4051 11.8157 76.2649 11.9175L72.4998 14.653C72.1863 14.8808 71.7645 14.5743 71.8842 14.2058L73.3224 9.77968C73.3759 9.61487 73.3173 9.43433 73.1771 9.33247L69.412 6.59696C69.0985 6.3692 69.2596 5.87336 69.6471 5.87336L74.301 5.87336C74.4743 5.87336 74.6279 5.76177 74.6814 5.59696L76.1196 1.17082Z" fill="#DDE1E4"/>
</svg>
