<svg version="1" xmlns="http://www.w3.org/2000/svg" width="1113.333" height="1113.333" viewBox="0 0 835.000000 835.000000"><path d="M38 214.5v176h352l-.2-176-.3-176H38v176zM445.1 39c-.5.4-.8 348.8-.2 351 0 .3 13.2.5 29.1.5 28.3 0 29 0 29.1-2 0-1.1.1-31 .1-66.5v-64.4l6.6-13.3c3.6-7.3 6.6-13.2 6.8-13.1.2.3 45.6 135.6 50.4 150.3l2.9 9 53.8-.1c29.6-.1 54.1-.2 54.5-.3.3 0 .7-32.8.7-72.9 0-40 0-75 .1-77.8v-5.1h19.5c10.7-.1 22.1-.4 25.3-.8 41.5-4.7 65.2-28.9 71-72.5.9-6.9.9-36.4 0-45-4.7-45.1-27.1-71.6-64.8-76.6-8.9-1.2-163-1.1-163.9.1-.5.5-4.3 9.5-8.6 20-14.3 35-23.7 57.9-26.7 65.5-1.6 4.1-3.4 8.4-3.8 9.5-1.1 2.3-8.1 19.6-17 41.5-3.5 8.5-6.4 15.6-6.5 15.8-.2.2-.3-33.1-.3-74s-.1-75.4-.1-76.8l-.1-2.5h-28.6c-15.7 0-28.9.2-29.3.5zm175.4 166c0 88-.2 160-.5 160s-2-4.2-3.7-9.3c-1.7-5-6.8-19.8-11.3-32.7-4.5-12.9-8.6-24.6-9-26-.4-1.4-4.3-12.4-8.5-24.5-20.3-58.2-23.8-68.3-25.2-72.2l-1.5-4.3 16.2-41.7c8.9-23 16.8-43.2 17.5-44.8.7-1.7 6.6-16.8 13.2-33.7 6.5-17 12-30.8 12.3-30.8.3 0 .5 72 .5 160zm93.4-120c11.7 1.9 18.7 7.1 22.7 16.5 1.8 4.4 2.1 5.7 3.1 14 1 7.7 1 34.4.1 41.5-2.2 17-8.9 26-22.3 30-2.2.7-11.8 1.4-21.2 1.6l-17.3.3v-4.7c-.1-5.7-.1-92.4 0-97V84h14.3c7.8 0 17.1.5 20.6 1zM38.2 620.5l.3 176H390l-.2-176-.3-176H38l.2 176zM444.7 445.5c-.2.5-.3 79.7-.3 176l.1 175h352l.1-175.8c.1-96.6-.1-175.8-.5-175.8-.3-.1-79.5-.2-175.8-.3-116.4-.1-175.4.2-175.6.9z"/></svg>