<svg xmlns="http://www.w3.org/2000/svg" viewBox="0 0 480 285.47"><defs><style>.cls-1{fill:#51a881;}.cls-2{fill:#fff;stroke:#51a881;stroke-miterlimit:10;stroke-width:16px;}</style></defs><title>Asset 3</title><g id="Layer_2" data-name="Layer 2"><g id="Capa_1" data-name="Capa 1"><path class="cls-1" d="M264,45.54a.08.08,0,0,1,.08-.07H331.2a86.92,86.92,0,0,1,36.59,8.05.08.08,0,0,1,0,.11l-79.1,172.5a7.68,7.68,0,0,0-.73,3.34,56.07,56.07,0,0,0,56,56h80a56.07,56.07,0,0,0,56-56,7.8,7.8,0,0,0-.8-3.32l.07,0L400.5,54.25a.08.08,0,0,1,0-.11l19-9.44a.09.09,0,0,0,0-.11l-7.08-14.17a.08.08,0,0,0-.11,0l-18.48,9.21a.08.08,0,0,1-.11,0l-2.33-5.08a8.26,8.26,0,0,0-10-4.57,8,8,0,0,0-4.66,4.23L374.51,39a.07.07,0,0,1-.1,0,102.87,102.87,0,0,0-43.21-9.54m-182.36,0A102.88,102.88,0,0,0,105.59,39a.07.07,0,0,1-.1,0l-2.22-4.84a8,8,0,0,0-12.33-2.87,8.09,8.09,0,0,0-2.28,3l-2.42,5.27a.08.08,0,0,1-.11,0L67.65,30.36a.09.09,0,0,0-.11,0L60.46,44.59a.09.09,0,0,0,0,.11l19,9.48a.08.08,0,0,1,0,.11L.73,226.13A7.68,7.68,0,0,0,0,229.47a56.07,56.07,0,0,0,56,56h80a56.07,56.07,0,0,0,56-56,7.8,7.8,0,0,0-.8-3.32l-79-172.52a.08.08,0,0,1,0-.11,86.92,86.92,0,0,1,36.59-8.05h67.08a.08.08,0,0,1,.08.07M136,269.47H56a40.08,40.08,0,0,1-39.18-31.91.08.08,0,0,1,.08-.09H175.1a.08.08,0,0,1,.08.09A40.08,40.08,0,0,1,136,269.47Zm35.41-48H20.59a.08.08,0,0,1-.07-.12L93.93,61.2a.07.07,0,0,1,.08-.05,7.89,7.89,0,0,0,4,0,.07.07,0,0,1,.08.05l73.41,160.15A.08.08,0,0,1,171.41,221.47ZM382,61.18a5.41,5.41,0,0,0,3.92-.16.09.09,0,0,1,.1,0l73.46,160.29a.08.08,0,0,1-.07.12H308.59a.08.08,0,0,1-.07-.12L381.91,61.22A.08.08,0,0,1,382,61.18Zm42,208.29H344a40.08,40.08,0,0,1-39.18-31.91.08.08,0,0,1,.08-.09H463.1a.08.08,0,0,1,.08.09A40.08,40.08,0,0,1,424,269.47Z"/><rect class="cls-1" x="148.17" y="29.47" width="183.65" height="16"/><circle class="cls-2" cx="238.34" cy="37.47" r="29.47"/></g></g></svg>