<svg width="100" height="100" viewBox="0 0 100 100" fill="none" xmlns="http://www.w3.org/2000/svg">
<path d="M70.8158 67.3058L65.4915 60.427C67.2168 59.9089 68.7071 58.8001 69.7037 57.2931C70.9575 55.1151 70.3906 52.4569 69.8419 49.8893C69.5102 48.5703 69.3117 47.221 69.2496 45.8621C69.3115 44.5019 69.5099 43.1514 69.8419 41.8313C70.3871 39.262 70.9575 36.6056 69.7037 34.431C68.4052 32.1765 65.7908 31.342 63.2621 30.5366C62.0033 30.188 60.7843 29.7083 59.6248 29.1051C58.5726 28.4192 57.5957 27.6234 56.7102 26.7309C54.8343 24.9811 52.7072 23 50 23C47.2928 23 45.1658 24.9811 43.2889 26.73C42.4038 27.6228 41.4271 28.4189 40.3753 29.1051C39.2159 29.707 37.9972 30.1856 36.7388 30.5331C34.2101 31.3385 31.5957 32.173 30.2972 34.4275C29.0434 36.6056 29.6104 39.2637 30.159 41.8313C30.4907 43.1515 30.6889 44.5019 30.7505 45.8621C30.6886 47.2223 30.4902 48.5728 30.1581 49.8928C29.613 52.4622 29.0425 55.1186 30.2964 57.2931C31.2943 58.8007 32.7862 59.9092 34.5129 60.4261L29.1843 67.3049C28.8876 67.6883 28.9564 68.2407 29.338 68.5388C29.5213 68.682 29.7537 68.7461 29.984 68.7171L36.2401 67.9319L37.7844 73.3625C37.8749 73.6808 38.1356 73.9211 38.459 73.9842C38.5138 73.9946 38.5695 74 38.6253 74C38.8954 74.0002 39.1506 73.8749 39.3165 73.6606L44.9041 66.4379C46.2792 67.7832 48.0854 68.5936 50 68.7241C51.9147 68.5936 53.7209 67.7832 55.0959 66.4379L60.6835 73.658C60.8489 73.8733 61.1041 73.9996 61.3748 74C61.4305 74 61.4862 73.9946 61.541 73.9842C61.8644 73.9211 62.1252 73.6808 62.2156 73.3625L63.76 67.9328L70.0161 68.718C70.4956 68.7784 70.933 68.4368 70.9932 67.955C71.0221 67.7235 70.9583 67.49 70.8158 67.3058ZM38.9928 71.2135L37.7162 66.7237C37.5975 66.3072 37.1946 66.0397 36.7668 66.0932L31.8669 66.7088L36.2585 61.0354L36.7423 61.1911C37.9995 61.5387 39.217 62.0173 40.3753 62.6191C41.4274 63.3049 42.4043 64.1007 43.2898 64.9932L43.5908 65.2728L38.9928 71.2135ZM50 66.9655C47.9788 66.9655 46.2787 65.3828 44.478 63.705C43.4984 62.7214 42.4163 61.8468 41.2502 61.0961C39.9816 60.4287 38.6462 59.8982 37.2664 59.5134C34.9539 58.7756 32.7691 58.0792 31.8101 56.4138C30.8948 54.8231 31.3673 52.6064 31.8687 50.2586C32.2295 48.8189 32.4413 47.3456 32.5004 45.8621C32.4416 44.3786 32.2302 42.9053 31.8696 41.4655C31.3682 39.1186 30.8957 36.9019 31.811 35.3103C32.7734 33.6449 34.9548 32.9485 37.2673 32.2108C38.6468 31.8259 39.9818 31.2953 41.2502 30.628C42.4159 29.8773 43.4978 29.0026 44.4772 28.0191C46.2787 26.3414 47.9788 24.7586 50 24.7586C52.0212 24.7586 53.7213 26.3414 55.522 28.0191C56.5017 29.0027 57.5838 29.8773 58.7498 30.628C60.0184 31.2954 61.3539 31.826 62.7336 32.2108C65.0462 32.9485 67.231 33.6449 68.19 35.3103C69.1052 36.901 68.6327 39.1178 68.1314 41.4655C67.7705 42.9053 67.5588 44.3786 67.4996 45.8621C67.5585 47.3456 67.7699 48.8189 68.1305 50.2586C68.6318 52.6055 69.1043 54.8222 68.1891 56.4138C67.2266 58.0792 65.0453 58.7756 62.7327 59.5134C61.3532 59.8983 60.0182 60.4288 58.7498 61.0961C57.5841 61.8468 56.5022 62.7215 55.5229 63.705C53.7213 65.3828 52.0212 66.9655 50 66.9655ZM63.2376 66.0932C62.8098 66.0397 62.4069 66.3072 62.2882 66.7237L61.0073 71.2135L56.4101 65.2737L56.7111 64.9941C57.5963 64.1014 58.573 63.3053 59.6248 62.6191C60.7842 62.0171 62.0029 61.5385 63.2612 61.1911L63.7451 61.0354L68.1375 66.7088L63.2376 66.0932Z" fill="#51A881"/>
<path d="M50 30.0345C41.3017 30.0345 34.2504 37.1207 34.2504 45.8621C34.2504 54.6034 41.3017 61.6897 50 61.6897C58.6983 61.6897 65.7497 54.6034 65.7497 45.8621C65.7396 37.1249 58.6942 30.0447 50 30.0345ZM50 59.931C42.2683 59.931 36.0004 53.6321 36.0004 45.8621C36.0004 38.092 42.2683 31.7931 50 31.7931C57.7318 31.7931 63.9997 38.092 63.9997 45.8621C63.9905 53.6284 57.7281 59.9218 50 59.931Z" fill="#51A881"/>
<path d="M60.0955 42.1892C59.7663 41.7347 59.2409 41.4657 58.6816 41.4655H53.325L51.6625 36.3418C51.3607 35.4191 50.3718 34.917 49.4536 35.2202C48.9254 35.3946 48.5111 35.811 48.3376 36.3418L46.6795 41.4655H41.3185C40.352 41.4651 39.5681 42.252 39.5676 43.2233C39.5673 43.786 39.8351 44.3148 40.2878 44.646L44.6242 47.8115L42.9678 52.9352C42.669 53.859 43.172 54.8512 44.0911 55.1513C44.624 55.3254 45.2077 55.2324 45.661 54.9014L50 51.7367L54.3373 54.9023C54.9483 55.3584 55.7843 55.3584 56.3953 54.9023C57.0153 54.4594 57.2734 53.6606 57.0305 52.9361L55.3742 47.8115L59.7106 44.646C60.492 44.0744 60.6644 42.9744 60.0955 42.1892ZM53.8307 46.7651C53.5238 46.9892 53.3955 47.3866 53.5131 47.7491L55.3663 53.4804L50.5145 49.9386C50.2079 49.7149 49.793 49.7149 49.4864 49.9386L44.6347 53.4804L46.487 47.7491C46.6041 47.3868 46.4759 46.99 46.1694 46.766L41.3185 43.2241H47.3147C47.6938 43.2241 48.0297 42.9788 48.1468 42.6165L50 36.8852L51.8532 42.6157C51.9704 42.9779 52.3063 43.2233 52.6853 43.2233L58.6816 43.2241L53.8307 46.7651Z" fill="#51A881"/>
<rect x="1" y="1" width="98" height="98" stroke="#51A881" stroke-width="2"/>
</svg>
