<svg id="Layer_1" data-name="Layer 1" xmlns="http://www.w3.org/2000/svg" viewBox="0 0 350 350"><defs><style>.cls-1{fill:#5d5d5d;}.cls-2{fill:none;}</style></defs><path class="cls-1" d="M122.9,61.69h54.38q26.55,0,39.82,14.24t13.28,41.77V232.3q0,27.52-13.28,41.77t-39.82,14.24H122.9Zm53.74,194.25q8.75,0,13.43-5.19t4.7-16.83V116.08q0-11.65-4.7-16.83t-13.43-5.19H158.51V255.94Z"/><polygon class="cls-2" points="231.78 334.56 231.78 342.1 342.1 342.1 342.1 7.9 7.9 7.9 7.9 342.1 115.06 342.1 115.06 334.56 231.78 334.56"/><polygon class="cls-1" points="350 0 0 0 0 350 115.06 350 115.06 342.1 7.9 342.1 7.9 7.9 342.1 7.9 342.1 342.1 231.78 342.1 231.78 350 350 350 350 0"/></svg>