<svg width="18" height="18" viewBox="0 0 18 18" fill="none" xmlns="http://www.w3.org/2000/svg">
<path d="M12.6376 17.7502H5.36261C4.5399 17.7808 3.73837 17.4854 3.13216 16.9284C2.52596 16.3713 2.16407 15.5976 2.12512 14.7752V10.8752C2.12512 10.7094 2.19096 10.5505 2.30817 10.4333C2.42538 10.3161 2.58435 10.2502 2.75012 10.2502C2.91588 10.2502 3.07485 10.3161 3.19206 10.4333C3.30927 10.5505 3.37511 10.7094 3.37511 10.8752V14.7752C3.41353 15.2661 3.64351 15.7222 4.01539 16.045C4.38727 16.3677 4.87118 16.5313 5.36261 16.5002H12.6376C13.129 16.5313 13.613 16.3677 13.9848 16.045C14.3567 15.7222 14.5867 15.2661 14.6251 14.7752V10.8752C14.6251 10.7094 14.691 10.5505 14.8082 10.4333C14.9254 10.3161 15.0844 10.2502 15.2501 10.2502C15.4159 10.2502 15.5748 10.3161 15.6921 10.4333C15.8093 10.5505 15.8751 10.7094 15.8751 10.8752V14.7752C15.8362 15.5976 15.4743 16.3713 14.8681 16.9284C14.2619 17.4854 13.4603 17.7808 12.6376 17.7502ZM17.5689 9.44396C17.6274 9.38585 17.6739 9.31673 17.7057 9.24057C17.7374 9.1644 17.7537 9.08271 17.7537 9.00021C17.7537 8.9177 17.7374 8.83601 17.7057 8.75985C17.6739 8.68368 17.6274 8.61456 17.5689 8.55646L9.44386 0.431456C9.38576 0.372876 9.31664 0.326379 9.24047 0.294649C9.16431 0.262918 9.08262 0.246582 9.00011 0.246582C8.91761 0.246582 8.83591 0.262918 8.75975 0.294649C8.68359 0.326379 8.61446 0.372876 8.55636 0.431456L0.431366 8.55646C0.313676 8.67415 0.247559 8.83377 0.247559 9.00021C0.247559 9.16664 0.313676 9.32627 0.431366 9.44396C0.549056 9.56165 0.708677 9.62776 0.875116 9.62776C1.04155 9.62776 1.20118 9.56165 1.31887 9.44396L9.00011 1.75646L16.6814 9.44396C16.7395 9.50254 16.8086 9.54903 16.8848 9.58076C16.9609 9.61249 17.0426 9.62883 17.1251 9.62883C17.2076 9.62883 17.2893 9.61249 17.3655 9.58076C17.4416 9.54903 17.5108 9.50254 17.5689 9.44396Z" fill="#51A62D"/>
</svg>
