<?xml version="1.0"?>
<svg xmlns="http://www.w3.org/2000/svg" xmlns:xlink="http://www.w3.org/1999/xlink" xmlns:svgjs="http://svgjs.com/svgjs" version="1.1" width="512" height="512" x="0" y="0" viewBox="0 0 512 512" style="enable-background:new 0 0 512 512" xml:space="preserve" class=""><g><path xmlns="http://www.w3.org/2000/svg" d="m343.867188 167.769531c-9.308594-27.972656-44.621094-46.769531-87.867188-46.769531-29.027344 0-65.5625 10.492188-81.75 33.933594l24.6875 17.046875c8.257812-11.960938 32.789062-20.980469 57.0625-20.980469 32.910156 0 55.167969 13.519531 59.402344 26.242188 2.210937 6.644531-1.097656 13.332031-9.839844 19.871093-4.71875 3.535157-10.816406 8.316407-17.800781 13.886719h-136.761719v30h99.695312c-12.523437 10.195312-25.257812 20.5625-37.03125 30h-62.664062v30h26.617188c-10.933594 12.9375-14.453126 28.515625-9.359376 43.542969 9.414063 27.785156 44.675782 46.457031 87.742188 46.457031 29.03125 0 65.570312-10.492188 81.753906-33.933594l-24.691406-17.042968c-8.253906 11.957031-32.785156 20.976562-57.0625 20.976562-32.796875 0-55.046875-13.441406-59.328125-26.085938-2.242187-6.613281.914063-13.257812 9.378906-19.738281 5.503907-4.214843 11.617188-9.007812 18.121094-14.175781h136.828125v-30h-99.640625c2.960937-2.40625 28.328125-23.054688 36.945313-30h62.695312v-30h-26.519531c11.007812-12.84375 14.4375-28.050781 9.386719-43.230469zm0 0" fill="#51a881" data-original="#000000" style="" class=""/><path xmlns="http://www.w3.org/2000/svg" d="m256 0c-140.960938 0-256 115.050781-256 256 0 140.960938 115.050781 256 256 256 140.960938 0 256-115.050781 256-256 0-140.960938-115.050781-256-256-256zm0 482c-124.617188 0-226-101.382812-226-226s101.382812-226 226-226 226 101.382812 226 226-101.382812 226-226 226zm0 0" fill="#51a881" data-original="#000000" style="" class=""/><path xmlns="http://www.w3.org/2000/svg" d="m256 61c-107.523438 0-195 87.476562-195 195s87.476562 195 195 195 195-87.476562 195-195-87.476562-195-195-195zm0 360c-90.980469 0-165-74.019531-165-165s74.019531-165 165-165 165 74.019531 165 165-74.019531 165-165 165zm0 0" fill="#51a881" data-original="#000000" style="" class=""/></g></svg>
