<svg width="100" height="100" viewBox="0 0 100 100" fill="none" xmlns="http://www.w3.org/2000/svg">
<path fill-rule="evenodd" clip-rule="evenodd" d="M50.4998 23C51.7632 23 52.635 23.9999 53.4986 24.9903C54.0101 25.577 54.517 26.1583 54.8273 26.2147C55.145 26.2728 55.8272 25.8926 56.5053 25.5144C57.6271 24.8885 58.7427 24.2669 59.885 24.6937C61.0401 25.1254 61.4727 26.3408 61.9037 27.552C62.159 28.2689 62.4131 28.9833 62.6561 29.1263C62.8995 29.2692 63.6478 29.1378 64.3948 29.0068C65.6492 28.7864 66.9019 28.5664 67.832 29.3537C68.7572 30.1373 68.7515 31.4165 68.7457 32.6957C68.7424 33.4509 68.7387 34.2061 68.9206 34.4223C69.1024 34.6391 69.8437 34.7643 70.5854 34.8895C71.8443 35.1025 73.1052 35.3155 73.7222 36.3723C74.3374 37.4266 73.913 38.6292 73.487 39.8359C73.2313 40.5597 72.9747 41.2861 73.0781 41.565C73.1816 41.8431 73.8379 42.2262 74.4975 42.6114C75.6156 43.264 76.7403 43.9203 76.9632 45.1526C77.1824 46.3638 76.3848 47.3711 75.5803 48.3879C75.087 49.0116 74.5891 49.6407 74.5891 50C74.5891 50.3597 75.087 50.9888 75.5803 51.6125C76.3848 52.6289 77.1824 53.6362 76.9632 54.8474C76.7403 56.0797 75.6156 56.7364 74.4975 57.389C73.8379 57.7738 73.1816 58.1569 73.0781 58.4354C72.9747 58.7144 73.2313 59.4407 73.487 60.1646C73.913 61.3713 74.3374 62.5739 73.7222 63.6277C73.1052 64.6849 71.8443 64.8979 70.5854 65.1105C69.8437 65.2361 69.1024 65.3614 68.9206 65.5777C68.7387 65.7944 68.7424 66.5495 68.7457 67.3047C68.7515 68.5839 68.7572 69.8631 67.832 70.6467C66.9019 71.4341 65.6492 71.2141 64.3948 70.9936C63.6478 70.8626 62.8995 70.7312 62.6561 70.8742C62.4131 71.0171 62.159 71.7315 61.9037 72.4484C61.4727 73.6596 61.0401 74.875 59.885 75.3067C58.7427 75.7336 57.6271 75.1115 56.5053 74.4861C55.8272 74.1078 55.1454 73.7276 54.8273 73.7857C54.517 73.8421 54.0101 74.4234 53.4986 75.0097C52.635 76.0001 51.7632 77 50.4998 77C49.2368 77 48.365 76.0001 47.501 75.0097C46.9899 74.423 46.483 73.8417 46.1723 73.7853C45.8546 73.7272 45.1728 74.1074 44.4943 74.4856C43.3725 75.1115 42.2573 75.7331 41.115 75.3063C39.9595 74.8746 39.5273 73.6592 39.0959 72.448C38.841 71.7315 38.5865 71.0167 38.3435 70.8737C38.1005 70.7308 37.3523 70.8622 36.6048 70.9936C35.3504 71.2136 34.0977 71.4336 33.1676 70.6463C32.2424 69.8627 32.2481 68.5835 32.2539 67.3043C32.2576 66.5491 32.2609 65.7939 32.079 65.5777C31.8972 65.3609 31.1563 65.2357 30.4142 65.1105C29.1553 64.8979 27.8944 64.6845 27.2774 63.6277C26.6626 62.5734 27.087 61.3708 27.513 60.1641C27.7688 59.4403 28.0249 58.7139 27.9215 58.435C27.8184 58.1569 27.1621 57.7738 26.5021 57.3886C25.3844 56.736 24.2593 56.0797 24.0368 54.8474C23.8176 53.6362 24.6148 52.6285 25.4193 51.6121C25.9131 50.9884 26.411 50.3593 26.411 49.9996C26.411 49.6403 25.9131 49.0112 25.4193 48.3875C24.6148 47.3707 23.8176 46.3638 24.0368 45.1521C24.2593 43.9199 25.3844 43.2636 26.5021 42.611C27.1621 42.2258 27.8184 41.8427 27.9215 41.5646C28.0249 41.2856 27.7688 40.5593 27.513 39.8354C27.087 38.6287 26.6622 37.4261 27.2774 36.3723C27.8944 35.3151 29.1553 35.1021 30.4142 34.8895C31.1563 34.7639 31.8972 34.6386 32.079 34.4223C32.2609 34.2056 32.2576 33.4505 32.2539 32.6953C32.2481 31.4161 32.2424 30.1364 33.1676 29.3537C34.0977 28.5664 35.3504 28.7859 36.6048 29.0064C37.3523 29.1374 38.1005 29.2688 38.3435 29.1258C38.5865 28.9833 38.841 28.2685 39.0959 27.5516C39.5269 26.3408 39.9599 25.125 41.115 24.6933C42.2573 24.2664 43.3725 24.8885 44.4943 25.5139C45.1728 25.8922 45.8546 26.2724 46.1723 26.2143C46.483 26.1579 46.9899 25.5766 47.501 24.9903C48.365 23.9999 49.2368 23 50.4998 23ZM63.5213 36.624C62.9409 36.624 62.4705 37.0961 62.4705 37.6787C62.4705 37.9382 62.5641 38.176 62.7193 38.3597V38.3601L62.7189 38.3597L62.7222 38.3634C62.7435 38.3885 62.7661 38.4124 62.7895 38.4351C65.6155 41.4591 67.346 45.5266 67.346 50C67.346 54.6695 65.4608 58.8965 62.4123 61.9563C59.3638 65.0165 55.152 66.9088 50.4998 66.9088C48.5082 66.9088 46.5975 66.5619 44.8243 65.925C44.7927 65.9118 44.7599 65.9002 44.7266 65.8899L44.7242 65.8887V65.8891C44.6277 65.8599 44.5251 65.8438 44.4192 65.8438C43.8392 65.8438 43.3684 66.3159 43.3684 66.8985C43.3684 67.3764 43.6853 67.7797 44.1192 67.9095C46.1128 68.6251 48.2611 69.0153 50.4998 69.0153C55.7312 69.0153 60.4675 66.8865 63.8957 63.4456C67.3243 60.0043 69.4447 55.2508 69.4447 50C69.4447 44.9754 67.5028 40.4065 64.332 37.0072C64.1391 36.7731 63.8477 36.624 63.5213 36.624ZM60.3501 33.9469C59.7701 33.9469 59.2993 34.4191 59.2993 35.0016C59.2993 35.5837 59.7701 36.0563 60.3501 36.0563C60.9305 36.0563 61.4009 35.5837 61.4009 35.0016C61.4009 34.4191 60.9305 33.9469 60.3501 33.9469ZM56.9396 32.1119C54.9291 31.3827 52.761 30.9847 50.4998 30.9847C45.2684 30.9847 40.5325 33.1131 37.1039 36.5544C33.6757 39.9953 31.5549 44.7492 31.5549 50C31.5549 55.0139 33.4886 59.5742 36.6475 62.9714C36.8404 63.203 37.1302 63.3504 37.4545 63.3504C38.0349 63.3504 38.5052 62.8783 38.5052 62.2958C38.5052 62.037 38.4125 61.8001 38.2581 61.6168V61.616L38.254 61.6115C38.2335 61.5871 38.2118 61.5641 38.1892 61.5422C35.3759 58.5203 33.6536 54.4622 33.6536 50C33.6536 45.3305 35.5392 41.1031 38.5878 38.0437C41.6363 34.9835 45.848 33.0912 50.4998 33.0912C52.5103 33.0912 54.4382 33.4447 56.2258 34.0932H56.2262C56.3526 34.1471 56.4913 34.1768 56.6375 34.1768C57.2179 34.1768 57.6882 33.7047 57.6882 33.1221C57.6882 32.645 57.3726 32.2421 56.9396 32.1119ZM40.6495 63.9437C40.0695 63.9437 39.5987 64.4158 39.5987 64.9984C39.5987 65.5809 40.0695 66.0531 40.6495 66.0531C41.2299 66.0531 41.7003 65.5809 41.7003 64.9984C41.7003 64.4158 41.2299 63.9437 40.6495 63.9437ZM44.3823 39.6344C43.1775 39.6344 42.0869 40.1243 41.2972 40.9169C40.5079 41.7096 40.0194 42.8042 40.0194 44.0134C40.0194 45.2222 40.5079 46.3172 41.2972 47.1095C42.0869 47.9022 43.1775 48.3924 44.3823 48.3924C45.587 48.3924 46.6776 47.9022 47.4673 47.1095C48.2566 46.3172 48.7451 45.2222 48.7451 44.0134C48.7451 42.8042 48.2566 41.7096 47.4673 40.9169C46.6776 40.1243 45.587 39.6344 44.3823 39.6344ZM45.9835 42.4062C45.5738 41.9951 45.0078 41.7405 44.3823 41.7405C43.7571 41.7405 43.1907 41.9951 42.781 42.4062C42.3714 42.8174 42.1181 43.3855 42.1181 44.0134C42.1181 44.6409 42.3714 45.2094 42.781 45.6206C43.1907 46.0313 43.7571 46.2859 44.3823 46.2859C45.0078 46.2859 45.5738 46.0317 45.9835 45.6206C46.3931 45.2094 46.6464 44.6409 46.6464 44.0134C46.6464 43.3855 46.3931 42.8174 45.9835 42.4062ZM55.7447 40.1115L43.5092 58.7366C43.1923 59.2207 43.3261 59.8708 43.8084 60.1889C44.2907 60.5069 44.9384 60.3726 45.2553 59.8885L57.4908 41.2634C57.8077 40.7793 57.6739 40.1292 57.1916 39.8111C56.7093 39.4931 56.0616 39.6274 55.7447 40.1115ZM56.6178 51.6076C55.413 51.6076 54.322 52.0978 53.5327 52.8901C52.7434 53.6828 52.2549 54.7778 52.2549 55.9866C52.2549 57.1958 52.7434 58.2904 53.5327 59.0831C54.3224 59.8753 55.413 60.3656 56.6178 60.3656C57.8225 60.3656 58.9131 59.8753 59.7024 59.0831C60.4921 58.2904 60.9806 57.1958 60.9806 55.9866C60.9806 54.7774 60.4921 53.6828 59.7024 52.8901C58.9131 52.0978 57.8225 51.6076 56.6178 51.6076ZM58.2186 54.3794C57.8093 53.9687 57.2429 53.7141 56.6178 53.7141C55.9922 53.7141 55.4262 53.9683 55.0165 54.3794C54.6069 54.7906 54.3532 55.3591 54.3532 55.9866C54.3532 56.6145 54.6069 57.1826 55.0165 57.5938C55.4262 58.0049 55.9922 58.2591 56.6178 58.2591C57.2429 58.2591 57.8093 58.0049 58.2186 57.5938C58.6286 57.1826 58.8819 56.6145 58.8819 55.9866C58.8819 55.3591 58.6286 54.791 58.2186 54.3794ZM51.9249 26.3729C51.3753 25.7426 50.8208 25.1065 50.5002 25.1065C50.1792 25.1065 49.6247 25.7426 49.0751 26.3729C48.3227 27.2356 47.5765 28.0913 46.5413 28.28C45.4905 28.4716 44.4816 27.9088 43.478 27.3489C42.7786 26.9588 42.0828 26.5711 41.8448 26.6601C41.61 26.7478 41.3403 27.5051 41.0719 28.2594C40.6897 29.3327 40.3092 30.4026 39.4013 30.9361C38.4872 31.4738 37.365 31.2768 36.2444 31.0799C35.4707 30.9444 34.6974 30.8084 34.5209 30.9584C34.3378 31.1133 34.3411 31.9006 34.3448 32.6875C34.3501 33.8307 34.3551 34.974 33.6778 35.7803C33.0026 36.584 31.8812 36.7736 30.7586 36.9631C29.9816 37.0945 29.2025 37.2259 29.0814 37.434C28.9607 37.6404 29.2243 38.3873 29.489 39.1363C29.8699 40.2153 30.2521 41.2976 29.881 42.2971C29.5149 43.2838 28.5359 43.8552 27.5516 44.4299C26.8497 44.8394 26.1433 45.2518 26.0945 45.5229C26.0448 45.7977 26.5497 46.4355 27.0591 47.0794C27.7815 47.992 28.5101 48.9124 28.5101 50C28.5101 51.0881 27.7815 52.008 27.0591 52.921C26.5497 53.5645 26.0448 54.2023 26.0945 54.4775C26.1433 54.7486 26.8497 55.1606 27.5516 55.5705C28.5359 56.1448 29.5149 56.7162 29.881 57.7029C30.2521 58.7028 29.8699 59.7851 29.489 60.8641C29.2243 61.6131 28.9607 62.3596 29.0814 62.5664C29.2025 62.7741 29.9812 62.9059 30.7586 63.0369C31.8816 63.2269 33.0026 63.416 33.6778 64.2202C34.3551 65.026 34.3501 66.1693 34.3448 67.3129C34.3411 68.0998 34.3378 68.8867 34.5209 69.0421C34.6978 69.1916 35.4707 69.0561 36.2444 68.9201C37.365 68.7236 38.4872 68.5262 39.4013 69.0639C40.3092 69.5974 40.6901 70.6673 41.0719 71.7406C41.3403 72.4949 41.61 73.2526 41.8448 73.3399C42.0828 73.4289 42.7786 73.0412 43.478 72.6511C44.4816 72.0916 45.4905 71.5288 46.5413 71.7204C47.5769 71.9087 48.3227 72.7644 49.0751 73.6275C49.6247 74.2578 50.1792 74.8939 50.5002 74.8939C50.8208 74.8939 51.3753 74.2578 51.9249 73.6275C52.6773 72.7644 53.4235 71.9087 54.4583 71.7204C55.5091 71.5288 56.5184 72.0916 57.522 72.6511C58.2214 73.0412 58.9172 73.4289 59.1552 73.3399C59.39 73.2526 59.6597 72.4949 59.9281 71.7406C60.3103 70.6673 60.6908 69.5978 61.5983 69.0639C62.5128 68.5262 63.6346 68.7232 64.7552 68.9201C65.5293 69.0561 66.3022 69.192 66.4795 69.0421C66.6622 68.8867 66.6589 68.0998 66.6552 67.3129C66.6499 66.1697 66.645 65.026 67.3222 64.2202C67.9974 63.416 69.1184 63.2269 70.241 63.0369C71.0184 62.9059 71.7975 62.7741 71.9186 62.5664C72.0393 62.3596 71.7757 61.6131 71.511 60.8641C71.1301 59.7851 70.7479 58.7028 71.119 57.7029C71.4847 56.7162 72.4641 56.1448 73.448 55.5705C74.1503 55.1606 74.8563 54.7486 74.9055 54.4775C74.9552 54.2023 74.4503 53.5645 73.9409 52.921C73.2185 52.008 72.49 51.0881 72.49 50C72.49 48.9124 73.2185 47.992 73.9409 47.0794C74.4503 46.4355 74.9552 45.7977 74.9055 45.5229C74.8563 45.2518 74.1503 44.8394 73.448 44.4299C72.4641 43.8552 71.4847 43.2838 71.119 42.2971C70.7479 41.2976 71.1301 40.2153 71.511 39.1363C71.7757 38.3873 72.0393 37.6404 71.9186 37.434C71.7975 37.2259 71.0184 37.0945 70.241 36.9631C69.1184 36.7736 67.9974 36.584 67.3222 35.7803C66.645 34.974 66.6499 33.8307 66.6552 32.6875C66.6589 31.9006 66.6622 31.1133 66.4795 30.9584C66.3022 30.8084 65.5293 30.9444 64.7552 31.0799C63.6346 31.2768 62.5128 31.4738 61.5987 30.9361C60.6908 30.4026 60.3099 29.3327 59.9281 28.2594C59.6597 27.5051 59.39 26.7478 59.1552 26.6601C58.9172 26.5711 58.2214 26.9588 57.522 27.3489C56.518 27.9088 55.5091 28.4716 54.4583 28.28C53.4231 28.0913 52.6773 27.2356 51.9249 26.3729Z" fill="#FF6D59"/>
<rect x="1" y="1" width="98" height="98" stroke="#FF6D59" stroke-width="2"/>
</svg>
