<svg width="100" height="100" viewBox="0 0 100 100" fill="none" xmlns="http://www.w3.org/2000/svg">
<path d="M70.8158 69.3058L65.4915 62.427C67.2168 61.9089 68.7071 60.8001 69.7037 59.2931C70.9575 57.1151 70.3906 54.4569 69.8419 51.8893C69.5102 50.5703 69.3117 49.221 69.2496 47.8621C69.3115 46.5019 69.5099 45.1514 69.8419 43.8313C70.3871 41.262 70.9575 38.6056 69.7037 36.431C68.4052 34.1765 65.7908 33.342 63.2621 32.5366C62.0033 32.188 60.7843 31.7083 59.6248 31.1051C58.5726 30.4192 57.5957 29.6234 56.7102 28.7309C54.8343 26.9811 52.7072 25 50 25C47.2928 25 45.1658 26.9811 43.2889 28.73C42.4038 29.6228 41.4271 30.4189 40.3753 31.1051C39.2159 31.707 37.9972 32.1856 36.7388 32.5331C34.2101 33.3385 31.5957 34.173 30.2972 36.4275C29.0434 38.6056 29.6104 41.2637 30.159 43.8313C30.4907 45.1515 30.6889 46.5019 30.7505 47.8621C30.6886 49.2223 30.4902 50.5728 30.1581 51.8928C29.613 54.4622 29.0425 57.1186 30.2964 59.2931C31.2943 60.8007 32.7862 61.9092 34.5129 62.4261L29.1843 69.3049C28.8876 69.6883 28.9564 70.2407 29.338 70.5388C29.5213 70.682 29.7537 70.7461 29.984 70.7171L36.2401 69.9319L37.7844 75.3625C37.8749 75.6808 38.1356 75.9211 38.459 75.9842C38.5138 75.9946 38.5695 76 38.6253 76C38.8954 76.0002 39.1506 75.8749 39.3165 75.6606L44.9041 68.4379C46.2792 69.7832 48.0854 70.5936 50 70.7241C51.9147 70.5936 53.7209 69.7832 55.0959 68.4379L60.6835 75.658C60.8489 75.8733 61.1041 75.9996 61.3748 76C61.4305 76 61.4862 75.9946 61.541 75.9842C61.8644 75.9211 62.1252 75.6808 62.2156 75.3625L63.76 69.9328L70.0161 70.718C70.4956 70.7784 70.933 70.4368 70.9932 69.955C71.0221 69.7235 70.9583 69.49 70.8158 69.3058ZM38.9928 73.2135L37.7162 68.7237C37.5975 68.3072 37.1946 68.0397 36.7668 68.0932L31.8669 68.7088L36.2585 63.0354L36.7423 63.1911C37.9995 63.5387 39.217 64.0173 40.3753 64.6191C41.4274 65.3049 42.4043 66.1007 43.2898 66.9932L43.5908 67.2728L38.9928 73.2135ZM50 68.9655C47.9788 68.9655 46.2787 67.3828 44.478 65.705C43.4984 64.7214 42.4163 63.8468 41.2502 63.0961C39.9816 62.4287 38.6462 61.8982 37.2664 61.5134C34.9539 60.7756 32.7691 60.0792 31.8101 58.4138C30.8948 56.8231 31.3673 54.6064 31.8687 52.2586C32.2295 50.8189 32.4413 49.3456 32.5004 47.8621C32.4416 46.3786 32.2302 44.9053 31.8696 43.4655C31.3682 41.1186 30.8957 38.9019 31.811 37.3103C32.7734 35.6449 34.9548 34.9485 37.2673 34.2108C38.6468 33.8259 39.9818 33.2953 41.2502 32.628C42.4159 31.8773 43.4978 31.0026 44.4772 30.0191C46.2787 28.3414 47.9788 26.7586 50 26.7586C52.0212 26.7586 53.7213 28.3414 55.522 30.0191C56.5017 31.0027 57.5838 31.8773 58.7498 32.628C60.0184 33.2954 61.3539 33.826 62.7336 34.2108C65.0462 34.9485 67.231 35.6449 68.19 37.3103C69.1052 38.901 68.6327 41.1178 68.1314 43.4655C67.7705 44.9053 67.5588 46.3786 67.4996 47.8621C67.5585 49.3456 67.7699 50.8189 68.1305 52.2586C68.6318 54.6055 69.1043 56.8222 68.1891 58.4138C67.2266 60.0792 65.0453 60.7756 62.7327 61.5134C61.3532 61.8983 60.0182 62.4288 58.7498 63.0961C57.5841 63.8468 56.5022 64.7215 55.5229 65.705C53.7213 67.3828 52.0212 68.9655 50 68.9655ZM63.2376 68.0932C62.8098 68.0397 62.4069 68.3072 62.2882 68.7237L61.0073 73.2135L56.4101 67.2737L56.7111 66.9941C57.5963 66.1014 58.573 65.3053 59.6248 64.6191C60.7842 64.0171 62.0029 63.5385 63.2612 63.1911L63.7451 63.0354L68.1375 68.7088L63.2376 68.0932Z" fill="#1F9F9D"/>
<path d="M50 32.0345C41.3017 32.0345 34.2504 39.1207 34.2504 47.8621C34.2504 56.6034 41.3017 63.6897 50 63.6897C58.6983 63.6897 65.7497 56.6034 65.7497 47.8621C65.7396 39.1249 58.6942 32.0447 50 32.0345ZM50 61.931C42.2683 61.931 36.0004 55.6321 36.0004 47.8621C36.0004 40.092 42.2683 33.7931 50 33.7931C57.7318 33.7931 63.9997 40.092 63.9997 47.8621C63.9905 55.6284 57.7281 61.9218 50 61.931Z" fill="#1F9F9D"/>
<path d="M60.0955 44.1892C59.7663 43.7347 59.2409 43.4657 58.6816 43.4655H53.325L51.6625 38.3418C51.3607 37.4191 50.3718 36.917 49.4536 37.2202C48.9254 37.3946 48.5111 37.811 48.3376 38.3418L46.6795 43.4655H41.3185C40.352 43.4651 39.5681 44.252 39.5676 45.2233C39.5673 45.786 39.8351 46.3148 40.2878 46.646L44.6242 49.8115L42.9678 54.9352C42.669 55.859 43.172 56.8512 44.0911 57.1513C44.624 57.3254 45.2077 57.2324 45.661 56.9014L50 53.7367L54.3373 56.9023C54.9483 57.3584 55.7843 57.3584 56.3953 56.9023C57.0153 56.4594 57.2734 55.6606 57.0305 54.9361L55.3742 49.8115L59.7106 46.646C60.492 46.0744 60.6644 44.9744 60.0955 44.1892ZM53.8307 48.7651C53.5238 48.9892 53.3955 49.3866 53.5131 49.7491L55.3663 55.4804L50.5145 51.9386C50.2079 51.7149 49.793 51.7149 49.4864 51.9386L44.6347 55.4804L46.487 49.7491C46.6041 49.3868 46.4759 48.99 46.1694 48.766L41.3185 45.2241H47.3147C47.6938 45.2241 48.0297 44.9788 48.1468 44.6165L50 38.8852L51.8532 44.6157C51.9704 44.9779 52.3063 45.2233 52.6853 45.2233L58.6816 45.2241L53.8307 48.7651Z" fill="#1F9F9D"/>
<rect x="1" y="1" width="98" height="98" stroke="#51A881" stroke-width="2"/>
</svg>
