<svg width="100" height="100" viewBox="0 0 100 100" fill="none" xmlns="http://www.w3.org/2000/svg">
<path d="M68.692 62.8372C69.6273 61.2501 69.4142 59.1676 68.0527 57.8061L59.5248 49.2774C63.7447 49.6858 67.9941 47.6175 70.9811 44.6309C75.8722 39.7394 77.5139 32.133 73.1763 27.7966C73.1763 27.7966 73.1763 27.7962 73.1759 27.7962C73.1759 27.7962 73.1759 27.7962 73.1759 27.7958C68.6876 23.3091 61.0221 25.3118 56.3421 29.9919C53.2868 33.0468 51.2945 37.3161 51.694 41.447L43.1669 32.9195C41.805 31.5588 39.7234 31.3457 38.1363 32.2806L31.0689 25.2144C29.4523 23.5961 26.832 23.5945 25.2142 25.2136C23.5959 26.831 23.5947 29.4513 25.2138 31.0687L32.2803 38.1361C31.3455 39.7236 31.5586 41.8056 32.9192 43.1675L42.3816 52.6295L27.0589 65.8824C24.6679 67.909 24.2073 71.7788 26.7123 74.2842C29.202 76.7746 33.0656 76.3545 35.11 73.9425L48.3447 58.5922L57.8055 68.0526C59.1726 69.4193 61.2554 69.6243 62.8369 68.6919L69.9306 75.786C71.5476 77.4038 74.1678 77.4054 75.7857 75.7864C77.4043 74.1693 77.4051 71.5491 75.7861 69.9312L68.692 62.8372ZM71.6798 29.2932C71.7473 31.5434 67.0155 36.8846 65.1252 38.775C62.8329 41.0677 57.7201 45.3955 55.643 45.3296C55.575 43.0794 60.2943 37.7507 62.1968 35.8482C64.1135 33.9316 69.4858 29.2147 71.6798 29.2932ZM69.5173 43.1671C65.9856 46.698 61.3084 48.0437 57.9199 46.8173C60.8466 45.51 64.3197 42.5084 66.5889 40.2392C68.8578 37.9703 71.8565 34.5009 73.1666 31.5729C74.5241 35.3371 72.6519 40.0325 69.5173 43.1671ZM57.8059 31.4561C61.34 27.922 66.0143 26.5771 69.4029 27.8047C66.4741 29.1136 63.0035 32.1132 60.733 34.384C58.4638 36.6533 55.4634 40.1247 54.1549 43.0531C52.9285 39.6638 54.2746 34.9865 57.8059 31.4561ZM26.678 26.6778C27.4847 25.8703 28.794 25.8666 29.6047 26.6778L36.5791 33.6513L33.6515 36.5797L26.6776 29.6045C25.8705 28.7982 25.866 27.4889 26.678 26.6778ZM33.5367 72.5976C32.2617 74.1014 29.8028 74.4475 28.1765 72.8204C26.5587 71.2026 26.8927 68.7368 28.4054 67.455L43.8494 54.0974L46.8773 57.1244L33.5367 72.5976ZM59.2696 66.5888L34.3834 41.7038C33.5767 40.8962 33.5767 39.5825 34.3834 38.7754L38.7752 34.3836C39.5818 33.5773 40.8956 33.5765 41.7035 34.3832C41.7399 34.42 66.5291 59.2105 66.5885 59.2699C67.396 60.077 67.396 61.3904 66.5885 62.1979L62.1976 66.5888C61.3905 67.3959 60.0767 67.3959 59.2696 66.5888ZM74.3219 74.3226C73.5132 75.1317 72.2043 75.1321 71.3951 74.3222L64.3937 67.3207L67.3204 64.394L74.3223 71.3954C75.1294 72.2021 75.1338 73.511 74.3219 74.3226Z" fill="#A275FF"/>
<path d="M50.0576 51.9502C50.0576 52.522 49.5942 52.9854 49.0224 52.9854C48.4506 52.9854 47.9872 52.522 47.9872 51.9502C47.9872 51.3784 48.4506 50.9151 49.0224 50.9151C49.5942 50.9151 50.0576 51.3784 50.0576 51.9502Z" fill="#A275FF"/>
<path d="M38.7752 40.2388C38.3708 39.8348 37.7157 39.8348 37.3114 40.2388C36.907 40.6431 36.907 41.2986 37.3114 41.7029L44.9966 49.3882C45.4014 49.7925 46.0564 49.7925 46.4608 49.3882C46.8651 48.9842 46.8651 48.3288 46.4608 47.9244L38.7752 40.2388Z" fill="#A275FF"/>
<rect x="1" y="1" width="98" height="98" stroke="#A275FF" stroke-width="2"/>
</svg>
