<svg width="100" height="100" viewBox="0 0 100 100" fill="none" xmlns="http://www.w3.org/2000/svg">
<path fill-rule="evenodd" clip-rule="evenodd" d="M61.5951 74.712C61.049 76.3619 59.8995 77.6295 58.4832 78.3449C57.1232 79.032 55.5163 79.2099 53.9597 78.7289L31.2042 70.8951C29.5867 70.338 28.3439 69.1656 27.6421 67.7209C26.9416 66.2776 26.7809 64.562 27.3262 62.9156L36.3178 35.7525C36.76 34.417 37.6054 33.2929 38.7574 32.5153L49.5704 23.3286C50.2679 22.7059 51.4327 22.2388 52.3421 22.0849C53.3398 21.9153 54.3643 22.0014 55.3201 22.3297L63.4493 25.1116C64.5331 25.4851 65.4485 26.1344 66.1451 26.9563C66.8554 27.7948 67.3389 28.8137 67.5427 29.9026L70.6823 43.8977C70.8435 44.503 70.9104 45.1179 70.8921 45.7259C70.8729 46.3582 70.7629 46.9714 70.5714 47.5476L69.1398 51.8763C70.0718 52.1973 71.0699 52.4834 72.1438 52.7274C72.7326 52.86 73.1044 53.454 72.9739 54.0546C72.8443 54.6552 72.2615 55.0348 71.6727 54.9022C70.5207 54.6404 69.4467 54.3333 68.4418 53.9889L61.5951 74.712ZM43.6323 60.9269C43.6323 60.4172 43.3637 60.0328 42.8908 59.8697L37.208 57.9189C36.6359 57.7236 36.0168 58.0385 35.825 58.6221C35.6335 59.2052 35.9422 59.8371 36.5144 60.0324L42.1652 61.9723C42.2824 62.0163 42.4091 62.0402 42.5408 62.0402C43.1437 62.0402 43.6323 61.4792 43.6323 60.9269ZM51.0166 62.6594C50.3391 62.4572 49.6169 63.0191 49.6169 63.731C49.6169 64.2289 49.8629 64.5933 50.3178 64.7712C50.3421 64.7794 50.3656 64.7886 50.3903 64.7964L55.9989 66.7216C56.571 66.9169 57.1905 66.6024 57.382 66.0188C57.5734 65.4352 57.2647 64.8034 56.6926 64.6081L51.0166 62.6594ZM46.5992 61.2283C45.9968 61.2283 45.5078 61.7266 45.5078 62.3415C45.5078 62.9565 45.9968 63.4548 46.5992 63.4548C47.2021 63.4548 47.6907 62.9565 47.6907 62.3415C47.6907 61.7266 47.2021 61.2283 46.5992 61.2283ZM54.2611 35.8878C54.273 35.2728 54.7714 34.784 55.3743 34.7962C55.9771 34.808 56.4564 35.3163 56.4444 35.9312C56.4444 35.9439 56.3988 37.3254 56.8848 39.3119C56.9181 39.2963 56.9505 39.2806 56.9829 39.2641C57.8245 38.8392 58.5067 38.0873 58.8303 37.1102C59.1551 36.1295 59.0592 35.1067 58.6418 34.2465C58.2248 33.3881 57.4881 32.6923 56.5301 32.3622C55.5683 32.0309 54.5659 32.1287 53.7226 32.5549C52.881 32.9798 52.1989 33.7312 51.8753 34.7088C51.5504 35.6899 51.6463 36.7123 52.0637 37.5725C52.4807 38.4309 53.2174 39.1267 54.1754 39.4568C54.3549 39.5185 54.5357 39.565 54.7164 39.5977C54.2121 37.4124 54.2607 35.9012 54.2611 35.8878ZM57.5589 41.4441C58.8128 44.6557 61.4715 48.5552 67.0997 51.0731L68.4994 46.8313C68.6247 46.4539 68.6968 46.0612 68.7087 45.6646C68.7198 45.2788 68.6751 44.8783 68.5676 44.4743L65.4109 30.4005C65.2783 29.6547 64.9799 28.9902 64.4926 28.4153C64.0428 27.8843 63.4532 27.4656 62.7556 27.2251L54.6269 24.4432C54.0078 24.2305 53.3427 24.1753 52.693 24.2853C52.5318 24.3127 51.3061 24.782 50.9309 25.0698L39.9955 34.3522C39.2447 34.8488 38.676 35.5955 38.3899 36.46L29.3978 63.6231C29.0452 64.6886 29.1497 65.7997 29.6029 66.7338C30.0556 67.6666 30.8563 68.4228 31.8975 68.7816L54.4657 76.5541C55.5103 76.9137 56.5996 76.8076 57.5158 76.3449C58.4295 75.8831 59.1709 75.0672 59.5227 74.0057L66.3975 53.197C59.7738 50.3069 56.7621 45.6437 55.3939 41.8851C53.1675 41.9008 51.1023 40.6174 50.1029 38.5592C48.6678 35.6029 49.8574 32.0182 52.7548 30.5549C55.6531 29.0911 59.1675 30.3044 60.6022 33.2598C61.2668 34.6288 61.419 36.2561 60.9023 37.8177C60.3843 39.3833 59.2941 40.5857 57.9503 41.2641C57.8224 41.3289 57.6919 41.3889 57.5589 41.4441ZM40.508 47.9677L59.9929 54.6569C60.5651 54.8522 61.1841 54.5373 61.3756 53.9537C61.567 53.3701 61.2587 52.7387 60.6862 52.5434L41.2016 45.8542C40.6295 45.6589 40.0104 45.9733 39.819 46.5569C39.6276 47.1405 39.9358 47.7724 40.508 47.9677ZM38.511 53.9998L57.9959 60.689C58.5681 60.8847 59.1871 60.5699 59.3785 59.9863C59.57 59.4027 59.2613 58.7712 58.6891 58.576L39.2046 51.8868C38.6325 51.6911 38.0134 52.0059 37.822 52.5895C37.6306 53.1731 37.9388 53.8045 38.511 53.9998Z" fill="#FFA254"/>
<rect x="1" y="1" width="98" height="98" stroke="#FFA254" stroke-width="2"/>
</svg>
