<svg xmlns="http://www.w3.org/2000/svg" viewBox="0 0 108.52 52.87" style="height: 100%;">
								<defs>
									<style>.clsL-1{fill:#7f7f7f;}.clsL-2{fill:#ff1a00;}.clsL-3{fill:#fc0;}.clsL-4{fill:#00ab11;}.clsL-5{fill:#0054b3;}.clsL-6{fill:#cf1500;}.clsL-6,.clsL-7,.clsL-8,.clsL-9{fill-rule:evenodd;}.clsL-7{fill:#e6a100;}.clsL-8{fill:#00750c;}.clsL-9{fill:#003a7d;}.clsL-10{fill:#fff;}.clsL-11{fill:#141414;}
									</style>
								</defs>
								<title><?php echo $name; ?></title>
								<g id="circle_2" data-name="Шар 2">
									<g id="Layer_1" data-name="Layer 1">
										<rect class="clsL-1" y="42.89" width="108.52" height="9.98"/><rect class="clsL-2" width="25.07" height="25.07"/><rect class="clsL-3" x="27.82" width="25.07" height="25.07"/><rect class="clsL-4" x="55.63" width="25.07" height="25.07"/><rect class="clsL-5" x="83.45" width="25.07" height="25.07"/><polygon class="clsL-6" points="25.07 7.15 25.07 25.07 0 25.07 0 4.42 25.07 7.15"/><polygon class="clsL-7" points="52.88 10.18 52.88 25.07 27.82 25.07 27.82 7.45 52.88 10.18"/><polygon class="clsL-8" points="80.7 13.2 80.7 25.07 55.63 25.07 55.63 10.48 80.7 13.2"/><polygon class="clsL-9" points="108.52 16.23 108.52 25.07 83.45 25.07 83.45 13.5 108.52 16.23"/><path class="clsL-10" d="M7.5,4.78A.5.5,0,0,0,7,4.27a.45.45,0,0,0-.32.12V14.7h0a5.15,5.15,0,0,1,.58,0c-.05,1.59,0,3.28-.17,4.86a3.61,3.61,0,0,1-.46-.1v1.06c.24,0,.52.06.84.08a.51.51,0,0,0,.57-.44l-.5-.06.5.06c.21-1.6.17-4.08.24-5.81A.47.47,0,0,0,8.19,14h0A.6.6,0,0,0,8,13.82H8l-.17.48L8,13.81a3.07,3.07,0,0,0-.61-.09l.06-3.56a1.55,1.55,0,0,0,1.34-.89c.39-.69.59-2,.51-4.42a.49.49,0,0,0-.51-.48.51.51,0,0,0-.49.51c.08,2.24-.08,3.36-.38,3.9a.7.7,0,0,1-.45.35L7.5,4.78Zm-.81-.39a.52.52,0,0,0-.19.37L6.43,9.13A.47.47,0,0,1,6,8.81,15,15,0,0,1,5.9,4.62a.5.5,0,0,0-.48-.52.5.5,0,0,0-.52.48A15.57,15.57,0,0,0,5,9.13a1.32,1.32,0,0,0,1.37,1l-.06,3.56a2.22,2.22,0,0,0-.7.14.48.48,0,0,0-.22.12h0a.49.49,0,0,0-.11.14.86.86,0,0,0-.06.23h0c0,1-.09,1.89-.14,2.6-.2,2.68-.25,3.36,1.57,3.6V19.48C6,19.25,6,18.67,6.12,17c0-.63.1-1.38.13-2.33l.44,0Z"/><path class="clsL-10" d="M13.17,6.12a2.22,2.22,0,0,0-.59-1.44l-.12-.13V3.31a3.35,3.35,0,0,1,.87.7,3.21,3.21,0,0,1,.84,2.1h0c0,.94,0,1.75-.05,2.56s0,1.59,0,2.48v.05c0,.84-.11,1.31-.75,1.61a2.58,2.58,0,0,1-.87.21V12a1.64,1.64,0,0,0,.44-.11c.15-.07.17-.29.17-.71v0c0-.93,0-1.72,0-2.52s.06-1.61.05-2.53h0Zm-.71,15.25v-1a1.93,1.93,0,0,0,.36-.06h0l.15.48-.14-.48a.43.43,0,0,0,.18-.08v0h0L13,15.52h-.51v-1h1a.5.5,0,0,1,.5.5v0L14,20.14h0v0h0a1.08,1.08,0,0,1-.89,1.08h0A2.68,2.68,0,0,1,12.46,21.37Zm0-16.82A2.56,2.56,0,0,0,11.67,4l-.42,8A12,12,0,0,0,12.46,12v1h0v1.49h0v1h-1c0,.44-.09.9-.14,1.36a24,24,0,0,0-.2,2.86.34.34,0,0,1,0,.1h0c0,.18.21.33.49.42a2.69,2.69,0,0,0,.62.11h.17v1h-.19a3.11,3.11,0,0,1-.91-.16,1.46,1.46,0,0,1-1.19-1.41,22.11,22.11,0,0,1,.21-3c.06-.59.12-1.2.17-1.8l.5,0-.5,0a.51.51,0,0,1,.51-.46h.38V13.08h-.76a.5.5,0,0,1-.47-.53h0l.48-9.18s0-.07,0-.1a.51.51,0,0,1,.59-.4h0a3.57,3.57,0,0,1,1.16.43Z"/><path class="clsL-10" d="M17.31,4A2.15,2.15,0,0,1,19,5.15a4.92,4.92,0,0,1,.63,2.5A4.88,4.88,0,0,1,19,10.14a2.34,2.34,0,0,1-1.29,1.1l-.09,3.24h.75a.5.5,0,0,1,.5.5v0l.06,5.48h0v0h0a1.13,1.13,0,0,1-.89,1.13,2.56,2.56,0,0,1-.75.11v-1a1.51,1.51,0,0,0,.44-.06c.11,0,.19-.09.19-.14v0h0l-.05-5.05h-.58V10.31a1.28,1.28,0,0,0,.84-.68,3.92,3.92,0,0,0,.48-2,3.93,3.93,0,0,0-.48-2A1.29,1.29,0,0,0,17.31,5Zm-.08,0h.08V5h-.08a1.19,1.19,0,0,0-.92.68,3.93,3.93,0,0,0-.48,2,3.92,3.92,0,0,0,.48,2,1.19,1.19,0,0,0,.92.68h.08v5.17h0l-.15,0-.13,0h-.46c0,.47-.09,1-.14,1.49a25,25,0,0,0-.19,3.09v.1h0c0,.23.21.4.51.5a1.74,1.74,0,0,0,.55.11h.06v1h-.09a3.11,3.11,0,0,1-.85-.16,1.52,1.52,0,0,1-1.18-1.49,27.14,27.14,0,0,1,.19-3.25c.06-.63.13-1.28.17-1.93h0a.5.5,0,0,1,.5-.46h.58l.09-3.24a2.39,2.39,0,0,1-1.27-1.1,4.88,4.88,0,0,1-.63-2.49,4.92,4.92,0,0,1,.63-2.5A2.15,2.15,0,0,1,17.23,4Z"/><path class="clsL-10" d="M43.15,20.59h0a.51.51,0,0,0,.51-.5l0-1.65a8.25,8.25,0,0,1,2.66.68c.64.3,1,.64,1,.93s-.45.58-1.12.79a8.8,8.8,0,0,1-3.11.32v1a9.78,9.78,0,0,0,3.41-.36c1.08-.35,1.77-.94,1.82-1.68s-.56-1.42-1.58-1.91a9.55,9.55,0,0,0-3.08-.78l.1-6.37h0l.46-.37a.65.65,0,0,0,.15-.1l.16-.15h0c.67-.65,1.27-1.25,1.86-1.85a.53.53,0,0,0,.35-.36c.65-.67,1.31-1.34,2.07-2.06l.06-.06L48.76,6h0l.17.15c1.57-1.84.57-2.9-1.09-3.51a15.32,15.32,0,0,0-4.07-.68l-.62,0v1l.57,0a14.59,14.59,0,0,1,3.77.62c.78.29,1.31.74,1,1.45l-.3.13a15,15,0,0,1-4.61.34l-.42,0v1l.37,0a22.28,22.28,0,0,0,3.74-.12c-.45.44-.87.88-1.3,1.31a10.81,10.81,0,0,1-2.15.13l-.66,0v1l.62,0c.37,0,.73,0,1.08,0-.23.23-.46.47-.71.7l-.79.72-.2-.25Zm-.46-.5a.48.48,0,0,0,.46.5V10l-1-1.33c.35.06.7.1,1,.13v-1a13.26,13.26,0,0,1-2-.35L40.05,6a17.14,17.14,0,0,0,3.1.47v-1a9.8,9.8,0,0,1-4-.88,1.41,1.41,0,0,1-.21-.16c-.25-.7.18-1.07.86-1.26a12.68,12.68,0,0,1,3.35-.24v-1a13.26,13.26,0,0,0-3.62.28c-1.67.46-2.61,1.46-.92,3.58l0,0h0l4.19,5.35-.1,6.24a9.39,9.39,0,0,0-3,.38c-1.08.35-1.77.94-1.82,1.68s.56,1.42,1.59,1.91a10,10,0,0,0,3.45.81h.19v-1H43a8.68,8.68,0,0,1-3.09-.72c-.65-.31-1-.64-1-.93s.45-.58,1.13-.8a8.58,8.58,0,0,1,2.66-.33Z"/><path class="clsL-10" d="M35,18.06c.62.08,1,.21,1,.4s-.43.31-1,.39v1a6.22,6.22,0,0,0,.8-.2c.78-.26,1.26-.69,1.26-1.21s-.48-1-1.26-1.22c-.23-.07-.5-.14-.8-.2v1Zm0-3V13.82a3.18,3.18,0,0,0,.55-.73,7.71,7.71,0,0,0,.75-2.32,6.73,6.73,0,0,1-1.3.29V10a3,3,0,0,0,1.46-.36.39.39,0,0,1,.06-.15c0-.24-.69-.4-1.52-.49V8c1.39.2,2.53.72,2.52,1.55a1,1,0,0,1-.08.37,10.34,10.34,0,0,1-1,3.65A3.8,3.8,0,0,1,35,15.07ZM34,18.93,34,18a9.87,9.87,0,0,1,1,.08V17a9.26,9.26,0,0,0-1-.11l.06-1.52a3.51,3.51,0,0,0,.91-.34V13.82a2.32,2.32,0,0,1-1.37.65,2.51,2.51,0,0,1-1.72-1.36v1.6a3.32,3.32,0,0,0,1.18.66l-.06,1.55a9.16,9.16,0,0,0-1.12.12v1A8.65,8.65,0,0,1,33,18l0,.95c-.36,0-.72,0-1-.07v1a9,9,0,0,0,1.53.13A9.37,9.37,0,0,0,35,19.87v-1c-.31,0-.68.07-1.05.08ZM35,8V9a15.08,15.08,0,0,0-3.09,0v-1A9.68,9.68,0,0,1,35,8Zm0,2v1a9.67,9.67,0,0,1-3.09-.1V10A14.29,14.29,0,0,0,35,10Zm-3.09-2v1c-.57.09-1,.22-1,.4a.77.77,0,0,1,.07.16,1.9,1.9,0,0,0,.94.31v1a7.19,7.19,0,0,1-.74-.21,10,10,0,0,0,.63,2.14l.11.22v1.6a4,4,0,0,1-1-1.4A14,14,0,0,1,30,9.9a.87.87,0,0,1-.09-.4c0-.72.87-1.19,2-1.42Zm0,9v1c-.63.07-1.07.21-1.07.4s.44.32,1.07.4v1a5.47,5.47,0,0,1-.82-.2c-.78-.26-1.26-.69-1.26-1.21s.48-1,1.26-1.22A5.47,5.47,0,0,1,31.93,17Z"/><path class="clsL-10" d="M68.89,21.61V20A2.83,2.83,0,0,0,69.08,19a18.7,18.7,0,0,0-.17-2.24l0-.23V9.74a20.29,20.29,0,0,1,.43,2.07c.16.94.29,2,.41,3.06a3,3,0,0,0,1.9-2.28,3.35,3.35,0,0,0,0-1.3,2.93,2.93,0,0,0-.45-1.16,3.72,3.72,0,0,0-2.31-1V8A3.59,3.59,0,0,1,72,9.57a3.88,3.88,0,0,1,.61,1.55,4.27,4.27,0,0,1,0,1.67,4,4,0,0,1-2.77,3.1l0,.28,0,.44A20.08,20.08,0,0,1,70.08,19,2.75,2.75,0,0,1,68.89,21.61ZM68.89,8V9.13l-.19,0c.07.2.13.42.19.64v6.75l0-.22c-.16-1.54-.32-3-.54-4.3a15.32,15.32,0,0,0-.74-3c-.83-.09-1.74-.15-2.63-.18V8l2.49.08A1.85,1.85,0,0,0,66.29,7,4.23,4.23,0,0,0,65,6.69v-1a5.44,5.44,0,0,1,1.71.37A2.69,2.69,0,0,1,68.47,8Zm0,12v1.59a8,8,0,0,1-3.93.68v-1c2.5,0,3.55-.4,3.93-1.27ZM65,5.55v-1h0a.43.43,0,0,0,.32-.22,1.48,1.48,0,0,0,.21-.8,1.48,1.48,0,0,0-.21-.8A.45.45,0,0,0,65,2.49h0v-1h0a1.37,1.37,0,0,1,1.15.67,2.43,2.43,0,0,1,.39,1.36,2.47,2.47,0,0,1-.39,1.36A1.4,1.4,0,0,1,65,5.55Zm-3.8,3.21h.1l-.1.28v4.34a4.35,4.35,0,0,1,.06-.52,16,16,0,0,1,1.13-4.12l2.61,0V8l-2.49-.07a1.32,1.32,0,0,1,.85-1,3.49,3.49,0,0,1,1.44-.25H65v-1h-.18A4.34,4.34,0,0,0,62.92,6a2.22,2.22,0,0,0-1.47,1.86h-.29v.89ZM65,1.49v1a.41.41,0,0,0-.28.22,1.48,1.48,0,0,0-.22.8,1.48,1.48,0,0,0,.22.8.48.48,0,0,0,.28.22v1a1.42,1.42,0,0,1-1.11-.67,2.47,2.47,0,0,1-.39-1.36,2.43,2.43,0,0,1,.39-1.36A1.39,1.39,0,0,1,65,1.49Zm0,19.8v1h-.35a5.7,5.7,0,0,1-3-.73,2.65,2.65,0,0,1-.45-.34v-3c0,.35.06.73.1,1.11a1.83,1.83,0,0,0,.88,1.41,4.76,4.76,0,0,0,2.48.58ZM60.68,10.48,59,8.8c.28,0,1.1,0,2.2,0V7.87l-3.39-.11a.5.5,0,0,0-.41.14.51.51,0,0,0,0,.71h0l3,3.05c-.07.34-.13.7-.18,1.07a28.49,28.49,0,0,0,0,6.66,2.74,2.74,0,0,0,.9,1.82v-3a25.45,25.45,0,0,1,0-4.8V9Q60.89,9.73,60.68,10.48Z"/><path class="clsL-10" d="M74,1.4a3.7,3.7,0,0,1,1.58.33,1.31,1.31,0,0,1,.85,1.12,1,1,0,0,1,0,.24.53.53,0,0,1,0,.19l.11,2.48h0a2,2,0,0,0,.44.49A3.35,3.35,0,0,1,78.18,8h0a.71.71,0,0,1,0,.14c0,1,0,2,0,3a54.52,54.52,0,0,1-.11,6c-.09,1.11-1.14,1.8-2.5,2.11a8.38,8.38,0,0,1-1.84.19v-1a7.66,7.66,0,0,0,1.62-.17c1-.21,1.67-.62,1.72-1.21a53,53,0,0,0,.11-5.89c0-1,0-2,0-3A2.71,2.71,0,0,0,76.34,7a2.05,2.05,0,0,1-.74-1.09V5.82l.5,0-.5,0L75.52,4A3.9,3.9,0,0,1,74,4.31h-.28v-1H74a2.66,2.66,0,0,0,1.14-.22c.17-.09.28-.17.28-.23s-.11-.13-.28-.22A2.65,2.65,0,0,0,74,2.4h-.28v-1Zm-.28,18h-.18a8,8,0,0,1-2-.28c-1.29-.37-2.24-1.09-2.27-2.17-.06-2,0-3.84.13-5.74,0-1,.09-1.94.12-2.92h0s0-.05,0-.08a3.49,3.49,0,0,1,1.48-1.95c.32-.26.6-.49.61-.51h0a.07.07,0,0,1,0,0l0-2.5a.61.61,0,0,1,0-.14,1.64,1.64,0,0,1,0-.23,1.3,1.3,0,0,1,.84-1.12,3.6,3.6,0,0,1,1.31-.32v1a2.45,2.45,0,0,0-.86.22c-.18.09-.29.17-.29.22s.11.14.29.23a2.26,2.26,0,0,0,.86.21v1a3.48,3.48,0,0,1-1.13-.25l0,1.65v0h0c0,.51-.45.88-1,1.31s-1.06.88-1.12,1.33c0,1-.08,2-.12,2.9-.1,1.88-.19,3.71-.13,5.67,0,.56.66,1,1.54,1.22a6.6,6.6,0,0,0,1.75.25h.16Z"/><path class="clsL-10" d="M92.43,0a6.45,6.45,0,0,1,3.15,1.87,7.17,7.17,0,0,1,1.88,4.88,7.17,7.17,0,0,1-1.88,4.88,6.25,6.25,0,0,1-4.6,2v-1A5.27,5.27,0,0,0,94.84,11a6.14,6.14,0,0,0,1.62-4.2,6.14,6.14,0,0,0-1.62-4.2A5.27,5.27,0,0,0,91,.83V0ZM91,17.49a9.66,9.66,0,0,0,7.1-3.16A11.08,11.08,0,0,0,101,6.75,11.18,11.18,0,0,0,98.78,0h-1.3A10.13,10.13,0,0,1,100,6.75a10.07,10.07,0,0,1-2.66,6.89A8.65,8.65,0,0,1,91,16.48Zm0-3.81a6.23,6.23,0,0,1-4.59-2A7.13,7.13,0,0,1,84.5,6.75a7.13,7.13,0,0,1,1.89-4.88A6.42,6.42,0,0,1,89.53,0H91V.83a5.28,5.28,0,0,0-3.86,1.72,6.14,6.14,0,0,0-1.62,4.2A6.14,6.14,0,0,0,87.12,11,5.28,5.28,0,0,0,91,12.67v1Zm0,2.8a8.67,8.67,0,0,1-6.37-2.84,7.92,7.92,0,0,1-.64-.77v1.55a9.63,9.63,0,0,0,7,3.07v-1ZM84,.63V0h.51A7.79,7.79,0,0,0,84,.63ZM84,0V.63c-.19.25-.36.5-.52.76V0Zm0,12.87v1.55l-.09-.09c-.15-.16-.29-.33-.43-.5V12.11A7.85,7.85,0,0,0,84,12.87Z"/><path class="clsL-10" d="M104.25,13a2.13,2.13,0,0,1,.38.14,1,1,0,0,1,.63.87.28.28,0,0,1,0,.09,1.09,1.09,0,0,1,.07.32l.18.18,0,0a2.42,2.42,0,0,1,.8,1.34h0a.33.33,0,0,1,0,.14c0,.62,0,1.23,0,1.83a35.92,35.92,0,0,1-.07,3.73c0,.47-.51.91-1.13,1.22a5,5,0,0,1-.89.34v-1a2.44,2.44,0,0,0,.44-.19c.33-.16.57-.32.58-.4a34.18,34.18,0,0,0,.07-3.63c0-.61,0-1.22,0-1.86a1.66,1.66,0,0,0-.51-.77l0,0-.3-.33,0,0-.2.06V14h0Zm-.69-.09a3,3,0,0,1,.69.09v1h0v1a2.56,2.56,0,0,1-.69.09h-.17v-1h.17a1.66,1.66,0,0,0,.55-.09,1.44,1.44,0,0,0-.55-.09h-.17v-1Zm.69,10.32a3.46,3.46,0,0,1-.86.13v-1a2.88,2.88,0,0,0,.86-.18Zm-.86.13h-.1a2.12,2.12,0,0,1-.42,0v-1a1.85,1.85,0,0,0,.44.06h.08v1ZM102.87,13a2.83,2.83,0,0,1,.52-.08v1A1.42,1.42,0,0,0,103,14a1.42,1.42,0,0,0,.38.08v1a2.17,2.17,0,0,1-.52-.08V14h0Zm0,10.32a4.61,4.61,0,0,1-1.37-.5c-.6-.33-1-.79-1.06-1.26,0-1.25,0-2.4.08-3.57,0-.6.06-1.21.08-1.81h0v-.08a2.51,2.51,0,0,1,1-1.49l.26-.22a1.39,1.39,0,0,1,0-.3s0-.06,0-.08a1,1,0,0,1,.63-.87,2.46,2.46,0,0,1,.38-.14v1h0v1l-.14,0a4.28,4.28,0,0,1-.44.4c-.31.27-.65.56-.69.88,0,.63,0,1.21-.08,1.78-.06,1.17-.12,2.3-.08,3.5,0,.08.24.24.55.42a3.67,3.67,0,0,0,.88.35Z"/><path class="clsL-10" d="M97.84,13a2.24,2.24,0,0,1,.39.14,1,1,0,0,1,.63.87s0,.06,0,.09a1.09,1.09,0,0,1,.07.32,1.53,1.53,0,0,0,.18.18l0,0a2.48,2.48,0,0,1,.8,1.34h0a.33.33,0,0,1,0,.14c0,.62,0,1.23,0,1.83a35.92,35.92,0,0,1-.07,3.73c0,.47-.52.91-1.13,1.22a5.08,5.08,0,0,1-.9.34v-1a2.25,2.25,0,0,0,.45-.19c.33-.16.57-.32.58-.4A34.18,34.18,0,0,0,98.94,18c0-.61,0-1.22,0-1.86a1.66,1.66,0,0,0-.51-.77l0,0-.3-.33,0,0-.21.06V14h0s0,0,0,0Zm-.68-.09a2.87,2.87,0,0,1,.68.09v1h0v1a2.43,2.43,0,0,1-.68.09H97v-1h.17a1.76,1.76,0,0,0,.55-.09,1.51,1.51,0,0,0-.55-.09H97v-1Zm.68,10.32a3.32,3.32,0,0,1-.85.13v-1a2.76,2.76,0,0,0,.85-.18Zm-.85.13h-.1a2.12,2.12,0,0,1-.42,0v-1a1.78,1.78,0,0,0,.44.06H97v1ZM96.47,13a2.83,2.83,0,0,1,.52-.08v1a1.27,1.27,0,0,0-.38.08,1.27,1.27,0,0,0,.38.08v1a2.17,2.17,0,0,1-.52-.08V14h0Zm0,10.32a4.61,4.61,0,0,1-1.37-.5c-.6-.33-1-.79-1.06-1.26,0-1.25,0-2.4.08-3.57,0-.6.06-1.21.08-1.81h0s0-.05,0-.08a2.51,2.51,0,0,1,1-1.49l.25-.22a2.66,2.66,0,0,1,0-.3.25.25,0,0,1,0-.08,1,1,0,0,1,.63-.87,2.13,2.13,0,0,1,.38-.14v1h0v1l-.14,0a4.28,4.28,0,0,1-.44.4c-.31.27-.65.56-.7.88,0,.63,0,1.21-.07,1.78-.06,1.17-.12,2.3-.08,3.5,0,.08.23.24.54.42a3.92,3.92,0,0,0,.89.35Z"/><path class="clsL-11" d="M0,41.25V27.66H2.24v6l4.55-6h3L5.63,33l4.42,8.3H7.14L4.07,34.87,2.24,37.14v4.11Zm18.1,0V27.66h2.24V41.25Zm13.86,0V30h-3.3v-2.3h8.85V30h-3.3V41.25Zm21.1-5,2.18.84a6.17,6.17,0,0,1-1.7,3.34,4.56,4.56,0,0,1-6.45-.63,8.09,8.09,0,0,1-1.56-5.23,8.55,8.55,0,0,1,1.57-5.44,4.46,4.46,0,0,1,3.66-1.7,4.22,4.22,0,0,1,3.13,1.28,5.52,5.52,0,0,1,1.32,2.7L53,32.05a3.09,3.09,0,0,0-.85-1.69,2.17,2.17,0,0,0-1.5-.59,2.38,2.38,0,0,0-2,1.08,6.17,6.17,0,0,0-.78,3.55,6.55,6.55,0,0,0,.76,3.65,2.31,2.31,0,0,0,2,1.08,2,2,0,0,0,1.54-.69,4.38,4.38,0,0,0,.94-2.19Zm11.07,5V27.66h2.24V33h4.41V27.66H73V41.25H70.78V35.31H66.37v5.94Zm18.19,0V27.66h8.27V30h-6v3h5.6v2.29h-5.6V39h6.23v2.3Zm17.36,0V27.66h2.19l4.55,9.07V27.66h2.1V41.25h-2.26l-4.49-8.86v8.86Z"/><path class="clsL-10" d="M56.17,50.74v-1h0a1.43,1.43,0,0,0,1.1-.48,2.16,2.16,0,0,0,.42-1.45,2.08,2.08,0,0,0-.41-1.42A1.43,1.43,0,0,0,56.18,46h0V45a2.62,2.62,0,0,1,2,.76,3.4,3.4,0,0,1,0,4.21,2.58,2.58,0,0,1-2,.75Zm16.32-.09V45.11h3.79v.94H73.61v1.31h2.31v.94H73.61v2.35Zm17.43,0V45.11H91v5.54ZM56.17,45V46a1.43,1.43,0,0,0-1.1.48,2.09,2.09,0,0,0-.43,1.43,2.06,2.06,0,0,0,.44,1.42,1.4,1.4,0,0,0,1.09.49v1a2.58,2.58,0,0,1-2-.75,2.87,2.87,0,0,1-.73-2.07,3.65,3.65,0,0,1,.25-1.42,2.63,2.63,0,0,1,.52-.76,2.13,2.13,0,0,1,.72-.5A2.94,2.94,0,0,1,56.17,45ZM37.64,48.64V47.45a3.72,3.72,0,0,0,.7-.06.62.62,0,0,0,.31-.24.68.68,0,0,0,.11-.41.64.64,0,0,0-.15-.45.61.61,0,0,0-.42-.22,5,5,0,0,0-.55,0v-.94h.1a4,4,0,0,1,1.29.15,1.27,1.27,0,0,1,.64.53,1.64,1.64,0,0,1,.24.88,1.5,1.5,0,0,1-.36,1,1.75,1.75,0,0,1-1.1.5,2.51,2.51,0,0,1,.6.47,6.44,6.44,0,0,1,.64.9l.67,1.08H39l-.81-1.21A8.33,8.33,0,0,0,37.64,48.64ZM19.58,45.12a4.31,4.31,0,0,1,1,.08,1.44,1.44,0,0,1,.8.54,1.75,1.75,0,0,1,.32,1.08,1.7,1.7,0,0,1-.19.85,1.5,1.5,0,0,1-.47.55,1.58,1.58,0,0,1-.58.26,6.08,6.08,0,0,1-.9.08v-1a1.68,1.68,0,0,0,.51-.08.67.67,0,0,0,.35-.27.75.75,0,0,0,.13-.43.71.71,0,0,0-.18-.5.77.77,0,0,0-.45-.24,1.6,1.6,0,0,0-.36,0v-.94Zm18.06,0v.94H36.51v1.4h1.13v1.19h0a.86.86,0,0,0-.33-.23,2,2,0,0,0-.57-.06h-.22v2.31H35.39V45.11ZM17.48,50.65V45.11h2.1v.94h-1v1.57h1v1h-1v2.09Z"/>
									</g>
								</g>
							</svg>