<?xml version="1.0"?>
<svg xmlns="http://www.w3.org/2000/svg" xmlns:xlink="http://www.w3.org/1999/xlink" xmlns:svgjs="http://svgjs.com/svgjs" version="1.1" width="512" height="512" x="0" y="0" viewBox="0 0 512 512" style="enable-background:new 0 0 512 512" xml:space="preserve" class=""><g><path xmlns="http://www.w3.org/2000/svg" d="m256 0c-140.960938 0-256 115.050781-256 256 0 140.960938 115.050781 256 256 256 140.960938 0 256-115.050781 256-256 0-140.960938-115.050781-256-256-256zm0 482c-124.617188 0-226-101.382812-226-226s101.382812-226 226-226 226 101.382812 226 226-101.382812 226-226 226zm0 0" fill="#51a881" data-original="#000000" style="" class=""/><path xmlns="http://www.w3.org/2000/svg" d="m256 61c-107.523438 0-195 87.476562-195 195s87.476562 195 195 195 195-87.476562 195-195-87.476562-195-195-195zm0 360c-90.980469 0-165-74.019531-165-165s74.019531-165 165-165 165 74.019531 165 165-74.019531 165-165 165zm0 0" fill="#51a881" data-original="#000000" style="" class=""/><path xmlns="http://www.w3.org/2000/svg" d="m346 211c0-33.085938-26.914062-60-60-60v-30h-30v30h-30v-30h-30v30h-30v30h30v150h-30v30h30v30h30v-30h30v30h30v-30c33.085938 0 60-26.914062 60-60 0-17.90625-7.894531-33.996094-20.378906-45 12.484375-11.003906 20.378906-27.09375 20.378906-45zm-30 90c0 16.542969-13.457031 30-30 30h-60v-60h60c16.542969 0 30 13.457031 30 30zm-90-60v-60h60c16.542969 0 30 13.457031 30 30s-13.457031 30-30 30zm0 0" fill="#51a881" data-original="#000000" style="" class=""/></g></svg>
