<svg width="70" height="70" viewBox="0 0 70 70" fill="none" xmlns="http://www.w3.org/2000/svg">
<rect x="1" y="1.00012" width="68" height="68" stroke="#FFC34F" stroke-width="2"/>
<path d="M54.7099 32.7182L53.4928 27.8056C53.8255 27.7343 54.0752 27.4364 54.0752 27.0795V26.2874C54.0752 24.5677 52.6886 23.1686 50.9844 23.1686H45.4406V21.5348C45.4406 20.6885 44.7584 20.0001 43.9197 20.0001H15.6607C14.8221 20.0001 14.1398 20.6885 14.1398 21.5348V35.0003C14.1398 35.4103 14.4693 35.7429 14.8758 35.7429C15.2821 35.7429 15.6117 35.4104 15.6117 35.0003V21.5348C15.6117 21.5075 15.6336 21.4853 15.6607 21.4853H43.9196C43.9467 21.4853 43.9686 21.5075 43.9686 21.5348V35.0004C43.9686 35.4105 44.2981 35.7431 44.7046 35.7431C45.111 35.7431 45.4405 35.4106 45.4405 35.0004V34.1586H54.1217C54.1224 34.1586 54.123 34.1588 54.1236 34.1588C54.1243 34.1588 54.125 34.1587 54.1256 34.1587C55.1939 34.1595 56.1009 34.867 56.4125 35.8419H54.1241C53.7178 35.8419 53.3882 36.1743 53.3882 36.5845V38.1686C53.3882 39.4516 54.4226 40.4954 55.6941 40.4954H56.5281V43.7627H54.6039C53.9718 41.9209 52.2367 40.5943 50.1993 40.5943C48.1618 40.5943 46.4267 41.9209 45.7947 43.7627H45.4403V38.1685C45.4403 37.7585 45.1109 37.4259 44.7044 37.4259C44.298 37.4259 43.9685 37.7584 43.9685 38.1685V43.7625H28.7C28.0679 41.9208 26.3329 40.5941 24.2954 40.5941C22.258 40.5941 20.5228 41.9208 19.8908 43.7625H15.6607C15.6336 43.7625 15.6117 43.7404 15.6117 43.713V42.0793H18.8006C19.207 42.0793 19.5366 41.7469 19.5366 41.3367C19.5366 40.9266 19.2071 40.5941 18.8006 40.5941H11.7359C11.3296 40.5941 11 40.9266 11 41.3367C11 41.7469 11.3295 42.0793 11.7359 42.0793H14.1399V43.713C14.1399 44.5593 14.8222 45.2477 15.6608 45.2477H19.636C19.6358 45.2642 19.6347 45.2806 19.6347 45.2972C19.6347 47.8904 21.7256 50.0001 24.2954 50.0001C26.8653 50.0001 28.9561 47.8904 28.9561 45.2972C28.9561 45.2805 28.955 45.2642 28.9549 45.2477H45.5398C45.5396 45.2642 45.5385 45.2806 45.5385 45.2972C45.5385 47.8904 47.6294 50.0001 50.1993 50.0001C52.7691 50.0001 54.86 47.8904 54.86 45.2972C54.86 45.2805 54.8589 45.2642 54.8587 45.2477H57.2641C57.6704 45.2477 58 44.9153 58 44.5051V36.5843C58.0001 34.6287 56.5702 33.0039 54.7099 32.7182ZM45.4406 24.6537H50.9844C51.8771 24.6537 52.6034 25.3866 52.6034 26.2874V26.3369H45.4406V24.6537ZM45.4406 32.6735V27.822H51.9798L53.1818 32.6735H45.4406ZM24.2954 48.5152C22.5371 48.5152 21.1065 47.0718 21.1065 45.2974C21.1065 43.523 22.5371 42.0795 24.2954 42.0795C26.0538 42.0795 27.4844 43.523 27.4844 45.2974C27.4844 47.0718 26.0538 48.5152 24.2954 48.5152ZM50.1995 48.5152C48.4411 48.5152 47.0105 47.0718 47.0105 45.2974C47.0105 43.523 48.4411 42.0795 50.1995 42.0795C51.9578 42.0795 53.3884 43.523 53.3884 45.2974C53.3884 47.0718 51.9578 48.5152 50.1995 48.5152ZM56.5283 39.0102H55.6942C55.2343 39.0102 54.8602 38.6326 54.8602 38.1685V37.3269H56.5282V39.0102H56.5283Z" fill="#FFC34F"/>
<path d="M24.2954 43.7627C23.4568 43.7627 22.7745 44.4511 22.7745 45.2974C22.7745 46.1436 23.4568 46.832 24.2954 46.832C25.1341 46.832 25.8163 46.1436 25.8163 45.2974C25.8163 44.4511 25.1341 43.7627 24.2954 43.7627Z" fill="#FFC34F"/>
<path d="M50.1995 43.7627C49.3608 43.7627 48.6786 44.4511 48.6786 45.2974C48.6786 46.1436 49.3608 46.832 50.1995 46.832C51.0381 46.832 51.7203 46.1436 51.7203 45.2974C51.7203 44.4511 51.0381 43.7627 50.1995 43.7627Z" fill="#FFC34F"/>
<path d="M41.5647 40.5944H30.5752C30.1688 40.5944 29.8392 40.9268 29.8392 41.337C29.8392 41.7472 30.1687 42.0796 30.5752 42.0796H41.5647C41.9711 42.0796 42.3007 41.7472 42.3007 41.337C42.3007 40.9268 41.9712 40.5944 41.5647 40.5944Z" fill="#FFC34F"/>
<path d="M22.7255 37.426H13.3059C12.8995 37.426 12.5699 37.7585 12.5699 38.1686C12.5699 38.5788 12.8994 38.9112 13.3059 38.9112H22.7255C23.1319 38.9112 23.4614 38.5788 23.4614 38.1686C23.4614 37.7585 23.1319 37.426 22.7255 37.426Z" fill="#FFC34F"/>
<path d="M36.5904 27.3463C36.303 27.0564 35.837 27.0564 35.5497 27.3464L29.0053 33.95L25.6008 30.5147C25.3134 30.2247 24.8474 30.2247 24.5601 30.5147C24.2727 30.8047 24.2727 31.2748 24.5601 31.5648L28.485 35.5253C28.6286 35.6703 28.817 35.7428 29.0053 35.7428C29.1935 35.7428 29.382 35.6703 29.5256 35.5253L36.5903 28.3966C36.8777 28.1064 36.8777 27.6364 36.5904 27.3463Z" fill="#FFC34F"/>
</svg>
