<svg width="67" height="21" viewBox="0 0 67 21" fill="none" xmlns="http://www.w3.org/2000/svg">
<path fill-rule="evenodd" clip-rule="evenodd" d="M0.521729 0.0703125H66.1221V20.7223H0.521729V0.0703125Z" fill="#CC1626"/>
<path fill-rule="evenodd" clip-rule="evenodd" d="M23.4117 9.69314C23.6521 9.69314 23.8879 9.62966 24.0919 9.50269C24.4955 9.25781 24.7177 8.83156 24.7177 8.35995C24.7177 7.87474 24.4819 7.43035 24.0557 7.19001C23.8607 7.07664 23.6385 7.01769 23.4117 7.01769C23.1805 7.01769 22.9583 7.07664 22.7587 7.19455C22.3416 7.43942 22.1103 7.87928 22.1103 8.35995C22.1103 8.82702 22.3279 9.25328 22.727 9.49815C22.9311 9.62966 23.1669 9.69314 23.4117 9.69314ZM17.5257 7.84754V5.69811H18.6821C18.9768 5.69811 19.2308 5.80694 19.4394 6.01553V6.02007C19.657 6.22413 19.7568 6.47354 19.7568 6.76829C19.7568 7.06758 19.648 7.31698 19.4394 7.53011C19.2308 7.7387 18.9768 7.84754 18.6821 7.84754H18.4735H17.5257ZM17.5257 8.92225H18.4735H18.6821C18.9678 8.92225 19.2489 8.8633 19.5165 8.74993C19.7704 8.63657 20.0017 8.48692 20.2012 8.2874C20.3962 8.09241 20.5504 7.86114 20.6592 7.6072C20.7771 7.33965 20.8315 7.05851 20.8315 6.76829C20.8315 6.4826 20.7771 6.20146 20.6592 5.93845C20.5504 5.6845 20.3962 5.45324 20.2012 5.25825C20.0017 5.06326 19.7704 4.90908 19.5165 4.79571C19.2489 4.68235 18.9678 4.62793 18.6821 4.62793H16.4556V10.5774H17.5257V8.92225ZM24.7857 10.0695C24.4139 10.464 23.8833 10.6772 23.3301 10.6772C22.0377 10.6772 21.0945 9.63419 21.0945 8.35995C21.0945 7.09025 22.0332 6.03367 23.3301 6.03367C23.8833 6.03367 24.4139 6.25134 24.7857 6.65039V6.08355H25.797V10.6227H24.7857V10.0695ZM30.1004 9.99696C29.7784 10.3869 29.275 10.5729 28.7672 10.5729C27.443 10.5729 26.781 9.65686 26.781 8.39623V6.08809H27.8013V8.34181C27.8013 9.09457 28.1051 9.58884 28.8987 9.58884C29.7512 9.58884 30.1094 8.97213 30.1094 8.17403V6.08809H31.1161V9.99243C31.1161 11.3528 30.2727 12.2915 28.8896 12.2915C28.1686 12.2915 27.4839 12.0602 26.9306 11.5977L26.8717 11.5524L27.4612 10.922L27.5111 10.9492C27.9464 11.2123 28.3726 11.3528 28.8896 11.3528C29.6469 11.3528 30.1004 10.9447 30.1004 10.1783V9.99696Z" fill="white"/>
<path fill-rule="evenodd" clip-rule="evenodd" d="M47.4 7.31224L47.4318 7.24875C47.4363 7.24422 47.4363 7.23515 47.4408 7.23062V7.22608L47.4726 7.16713H47.4771L47.4862 7.14899L47.4953 7.13992L47.5043 7.11725H47.5089C47.5179 7.09911 47.527 7.08551 47.5361 7.0719L47.5406 7.06283C47.5451 7.0583 47.5497 7.04923 47.5542 7.04016L47.5587 7.03562L47.5769 7.01295V7.00842C47.595 6.98121 47.6132 6.95854 47.6313 6.93586V6.93133C47.6404 6.92226 47.6449 6.91772 47.6494 6.90865H47.654C48.0802 6.35089 48.7378 6.0244 49.4406 6.0244H49.5359C50.8056 6.0516 51.7216 7.08551 51.7216 8.34161C51.7216 9.61585 50.7829 10.6679 49.486 10.6679C48.9872 10.6679 48.4974 10.4548 48.1709 10.0784V12.2187H47.1597V8.24184H47.1642C47.1733 7.9607 47.2368 7.68408 47.3501 7.42107L47.3547 7.412L47.3592 7.39386L47.3683 7.38026L47.3774 7.35759L47.3864 7.33491L47.4 7.31224ZM32.1318 4.61865H33.2065V10.5681H32.1318V4.61865ZM34.6712 7.60246L37.1517 10.5863H35.7369L33.3471 7.60246L35.7369 4.61865H37.1517L34.6712 7.60246ZM38.0632 8.64089C38.0994 9.35284 38.6708 9.72014 39.3601 9.72014C39.8408 9.72014 40.3214 9.58864 40.7386 9.34377L40.784 9.31656L41.3508 9.91967L41.2873 9.96955C40.7295 10.3958 40.072 10.6588 39.3601 10.6588C37.9997 10.6588 37.0157 9.70654 37.0157 8.34161C37.0157 7.00842 37.9589 6.01533 39.3057 6.01533C40.2217 6.01533 40.9563 6.45519 41.3191 7.2941C41.4732 7.65687 41.5186 8.21464 41.4007 8.59101L41.3825 8.64089H38.0632ZM43.0649 8.64089C43.1012 9.35284 43.6725 9.72014 44.3618 9.72014C44.847 9.72014 45.3277 9.58864 45.7403 9.34377L45.7902 9.31656L46.3525 9.91967L46.2936 9.96955C45.7313 10.3958 45.0737 10.6588 44.3618 10.6588C43.0014 10.6588 42.0219 9.70654 42.0219 8.34161C42.0219 7.00842 42.9606 6.01533 44.3119 6.01533C45.2234 6.01533 45.958 6.45519 46.3208 7.2941C46.4795 7.65687 46.5203 8.21464 46.4024 8.59101L46.3888 8.64089H43.0649ZM53.3676 8.64089C53.4039 9.35284 53.9753 9.72014 54.6645 9.72014C55.1452 9.72014 55.6304 9.58864 56.0431 9.34377L56.093 9.31202L56.6553 9.91967L56.5918 9.96955C56.034 10.3958 55.3765 10.6588 54.6645 10.6588C53.3041 10.6588 52.3247 9.70654 52.3247 8.34161C52.3247 7.00842 53.2633 6.01533 54.6147 6.01533C55.5261 6.01533 56.2607 6.45519 56.6235 7.2941C56.7822 7.65687 56.823 8.21464 56.7051 8.59101L56.6915 8.64089H53.3676ZM48.1618 8.34161C48.1618 10.1872 50.7058 10.033 50.7058 8.34161C50.7058 6.65018 48.1618 6.496 48.1618 8.34161ZM38.1221 7.83372H40.4529C40.4393 7.75664 40.4076 7.67955 40.3758 7.60699C40.1763 7.18527 39.7818 6.954 39.3147 6.954C38.8069 6.954 38.3262 7.23062 38.1539 7.72943C38.1403 7.76117 38.1312 7.79745 38.1221 7.83372ZM43.1238 7.83372H45.4592C45.4411 7.75664 45.4138 7.67955 45.3776 7.60699C45.178 7.18527 44.7835 6.954 44.321 6.954C43.8086 6.954 43.3279 7.23062 43.1556 7.72943C43.1465 7.76117 43.1329 7.79745 43.1238 7.83372ZM53.4266 7.83372H55.7619C55.7438 7.75664 55.7166 7.67955 55.6803 7.60699C55.4808 7.18527 55.0863 6.954 54.6237 6.954C54.1113 6.954 53.6306 7.23062 53.4583 7.72489C53.4447 7.76117 53.4357 7.79745 53.4266 7.83372ZM58.5326 6.67739C58.9362 6.22846 59.503 6.02893 60.1152 6.02893H60.351L60.3555 7.04016H59.9157C58.9453 7.04016 58.5417 7.70222 58.5417 8.60915V10.6044H57.4942V6.07881H58.5326V6.67739Z" fill="#FFCC00"/>
<path fill-rule="evenodd" clip-rule="evenodd" d="M17.9067 14.3955H16.7458V16.2003H16.4556V14.1234H18.2014V16.2003H17.9067V14.3955ZM20.2692 14.3955H19.3986C19.3986 14.8082 19.394 15.3478 19.2897 15.7468C19.2398 15.9328 19.1537 16.1323 18.9587 16.2003C18.8861 16.2275 18.8136 16.232 18.741 16.232C18.673 16.232 18.5733 16.2184 18.5098 16.2003L18.4644 16.1867L18.5188 15.9101L18.5733 15.9237C18.605 15.9328 18.673 15.9509 18.7093 15.9509C18.741 15.9509 18.7773 15.9464 18.8091 15.9373C18.9451 15.901 18.995 15.7287 19.0222 15.6108C19.1174 15.2208 19.1174 14.6812 19.1174 14.2776V14.1234H20.564V16.2003H20.2692V14.3955ZM22.5365 14.9442V14.9261C22.5365 14.5451 22.3053 14.3728 21.938 14.3728C21.7203 14.3728 21.5298 14.4272 21.3394 14.5225L21.2895 14.5497L21.1807 14.2867L21.226 14.264C21.4618 14.1552 21.684 14.0917 21.947 14.0917C22.1874 14.0917 22.4368 14.1461 22.6091 14.323C22.7678 14.4817 22.8268 14.6948 22.8268 14.917V16.2003H22.5365V15.96C22.3552 16.1504 22.1057 16.2456 21.8337 16.2456C21.4165 16.2456 21.0174 16.028 21.0174 15.5654C21.0174 15.0621 21.4936 14.8716 21.9334 14.8716C22.1466 14.8716 22.337 14.8943 22.5365 14.9442ZM23.9015 14.3955H23.1623V14.1234H24.9354V14.3955H24.1917V16.2003H23.9015V14.3955ZM25.4795 15.2888C25.5294 15.6697 25.8015 15.9645 26.2005 15.9645C26.4636 15.9645 26.6631 15.8602 26.8399 15.6697L26.8762 15.6335L27.0848 15.8194L27.0485 15.8602C26.8082 16.1141 26.5497 16.2456 26.1915 16.2456C25.5838 16.2456 25.1712 15.7423 25.1712 15.1573C25.1712 14.5905 25.5702 14.0735 26.1597 14.0735C26.7764 14.0735 27.1211 14.586 27.1211 15.1619C27.1211 15.1891 27.1165 15.2163 27.1165 15.2435L27.1075 15.2888H25.4795ZM25.6473 13.8967V13.484H26.0192V13.8967H25.6473ZM26.2822 13.8967V13.484H26.6495V13.8967H26.2822ZM28.1323 15.0304L27.2934 14.1234H27.6743L28.7309 15.2979V14.1234H29.0256V15.2979L30.0822 14.1234H30.4631L29.6242 15.0304L30.4994 16.2003H30.1366L29.4292 15.2435L29.0256 15.6833V16.2003H28.7309V15.6833L28.3273 15.2435L27.6199 16.2003H27.2617L28.1323 15.0304ZM31.098 14.9986H32.3087V14.1234H32.6035V16.2003H32.3087V15.2752H31.098V16.2003H30.8078V14.1234H31.098V14.9986ZM34.5761 14.9442V14.9261C34.5761 14.5451 34.3403 14.3728 33.9775 14.3728C33.7598 14.3728 33.5694 14.4272 33.3789 14.5225L33.329 14.5497L33.2202 14.2867L33.2655 14.264C33.5013 14.1552 33.7235 14.0917 33.9866 14.0917C34.2269 14.0917 34.4718 14.1461 34.6486 14.323C34.8073 14.4817 34.8663 14.6948 34.8663 14.917V16.2003H34.5761V15.96C34.3901 16.1504 34.1453 16.2456 33.8732 16.2456C33.4515 16.2456 33.0569 16.028 33.0569 15.5654C33.0569 15.0621 33.5331 14.8716 33.9729 14.8716C34.1861 14.8716 34.372 14.8943 34.5761 14.9442ZM35.8684 15.3931C35.5737 15.3115 35.3379 15.0893 35.3379 14.7628C35.3379 14.323 35.7143 14.1234 36.1133 14.1234H37.052V16.2003H36.7572V15.4385H36.1813L35.5964 16.2003H35.229L35.8684 15.3931ZM40.2852 14.3955H39.1243V16.2003H38.8296V14.1234H40.5754V16.2003H40.2852V14.3955ZM42.6477 14.3955H41.7771C41.7771 14.8082 41.7726 15.3478 41.6637 15.7468C41.6138 15.9328 41.5322 16.1323 41.3327 16.2003C41.2647 16.2275 41.1921 16.232 41.1196 16.232C41.0515 16.232 40.9518 16.2184 40.8883 16.2003L40.843 16.1867L40.8974 15.9101L40.9518 15.9237C40.9835 15.9328 41.0515 15.9509 41.0878 15.9509C41.1196 15.9509 41.1558 15.9464 41.1876 15.9373C41.3191 15.901 41.369 15.7287 41.4007 15.6108C41.4914 15.2208 41.4914 14.6812 41.4914 14.2776V14.1234H42.938V16.2003H42.6477V14.3955ZM44.9151 14.9442V14.9261C44.9151 14.5451 44.6793 14.3728 44.3165 14.3728C44.0988 14.3728 43.9084 14.4272 43.7179 14.5225L43.668 14.5497L43.5592 14.2867L43.6046 14.264C43.8404 14.1552 44.0626 14.0917 44.3256 14.0917C44.5659 14.0917 44.8108 14.1461 44.9876 14.323C45.1463 14.4817 45.2008 14.6948 45.2008 14.917V16.2003H44.9151V15.96C44.7292 16.1504 44.4797 16.2456 44.2077 16.2456C43.7905 16.2456 43.396 16.028 43.396 15.5654C43.396 15.0621 43.8721 14.8716 44.312 14.8716C44.5251 14.8716 44.711 14.8943 44.9151 14.9442ZM46.28 14.3955H45.5363V14.1234H47.3094V14.3955H46.5702V16.2003H46.28V14.3955ZM48.8874 16.0779C48.7469 16.1822 48.6063 16.2456 48.4158 16.2456C47.8082 16.2456 47.5588 15.6924 47.5588 15.1528C47.5588 14.6177 47.8082 14.0735 48.4158 14.0735C48.6108 14.0735 48.7469 14.137 48.8874 14.2459V13.3843H49.1777V14.2459C49.3137 14.137 49.4543 14.0735 49.6493 14.0735C50.2569 14.0735 50.5063 14.6222 50.5063 15.1619C50.5063 15.697 50.2524 16.2456 49.6493 16.2456C49.4407 16.2456 49.3182 16.1912 49.1777 16.0824V16.8215H48.8874V16.0779ZM51.9257 16.2456C51.318 16.2456 50.86 15.7604 50.86 15.1619C50.86 14.5633 51.3271 14.0735 51.9302 14.0735C52.5378 14.0735 52.9958 14.5633 52.9958 15.1619C52.9958 15.7559 52.5288 16.2456 51.9257 16.2456ZM53.7713 14.459C53.9617 14.2232 54.2066 14.0735 54.5331 14.0735C55.1317 14.0735 55.5443 14.5814 55.5443 15.1619C55.5443 15.7378 55.1271 16.2456 54.5331 16.2456C54.2157 16.2456 53.9617 16.1096 53.7713 15.8783V16.8215H53.4765V14.1234H53.7713V14.459ZM57.0634 15.2208L57.8434 14.1234H58.0883V16.2003H57.798V14.6585L57.0544 15.6833L56.3197 14.6631V16.2003H56.0341V14.1234H56.2835L57.0634 15.2208ZM60.0654 14.9442V14.9261C60.0654 14.5451 59.8296 14.3728 59.4668 14.3728C59.2491 14.3728 59.0587 14.4272 58.8682 14.5225L58.8183 14.5497L58.7095 14.2867L58.7548 14.264C58.9907 14.1552 59.2128 14.0917 59.4759 14.0917C59.7162 14.0917 59.9611 14.1461 60.1379 14.323C60.2966 14.4817 60.3556 14.6948 60.3556 14.917V16.2003H60.0654V15.96C59.8794 16.1504 59.6346 16.2456 59.3625 16.2456C58.9408 16.2456 58.5463 16.028 58.5463 15.5654C58.5463 15.0621 59.0224 14.8716 59.4623 14.8716C59.6754 14.8716 59.8613 14.8943 60.0654 14.9442ZM22.5411 15.2253C22.337 15.1755 22.1375 15.1483 21.9198 15.1483C21.6477 15.1483 21.3258 15.239 21.3258 15.5654C21.3258 15.8557 21.5843 15.9645 21.8427 15.9645C22.1692 15.9645 22.5411 15.774 22.5411 15.4067V15.2253ZM25.4841 15.0168H26.8082C26.7628 14.6585 26.5497 14.3502 26.1552 14.3502C25.7743 14.3502 25.5294 14.6676 25.4841 15.0168ZM34.5806 15.2253C34.372 15.1755 34.1725 15.1483 33.9593 15.1483C33.6873 15.1483 33.3653 15.239 33.3653 15.5654C33.3653 15.8557 33.6238 15.9645 33.8823 15.9645C34.2087 15.9645 34.5806 15.774 34.5806 15.4067V15.2253ZM36.7572 15.1664V14.3955H36.1405C35.8956 14.3955 35.6462 14.4953 35.6462 14.7719C35.6462 15.0485 35.9047 15.1664 36.1496 15.1664H36.7572ZM44.9196 15.2253C44.711 15.1755 44.5115 15.1483 44.2984 15.1483C44.0263 15.1483 43.7043 15.239 43.7043 15.5654C43.7043 15.8557 43.9628 15.9645 44.2213 15.9645C44.5478 15.9645 44.9196 15.774 44.9196 15.4067V15.2253ZM48.8874 15.7559V14.5633C48.7605 14.4363 48.6199 14.3592 48.434 14.3592C47.9805 14.3592 47.8626 14.7855 47.8626 15.1664C47.8626 15.5654 47.9669 15.96 48.434 15.96C48.6199 15.96 48.7605 15.8874 48.8874 15.7559ZM49.1777 14.5633V15.7559C49.3046 15.8874 49.4452 15.96 49.6311 15.96C50.0982 15.96 50.1979 15.5564 50.1979 15.1619C50.1979 14.781 50.08 14.3592 49.6311 14.3592C49.4452 14.3592 49.3046 14.4363 49.1777 14.5633ZM51.9302 15.9645C52.3655 15.9645 52.6875 15.5791 52.6875 15.1619C52.6875 14.7356 52.361 14.3547 51.9257 14.3547C51.4903 14.3547 51.1684 14.7356 51.1684 15.1619C51.1684 15.5927 51.4903 15.9645 51.9302 15.9645ZM54.5149 15.96C54.9729 15.96 55.236 15.6017 55.236 15.1619C55.236 14.7356 54.9548 14.3592 54.5149 14.3592C54.0751 14.3592 53.7577 14.7401 53.7577 15.1664C53.7577 15.5881 54.0796 15.96 54.5149 15.96ZM60.0699 15.2253C59.8613 15.1755 59.6618 15.1483 59.4487 15.1483C59.1766 15.1483 58.8546 15.239 58.8546 15.5654C58.8546 15.8557 59.1131 15.9645 59.3716 15.9645C59.6981 15.9645 60.0699 15.774 60.0699 15.4067V15.2253Z" fill="white"/>
<path fill-rule="evenodd" clip-rule="evenodd" d="M9.28604 10.6001L12.2744 7.61173L9.28604 4.62793C10.0297 4.62793 10.7734 4.62793 11.5171 4.62793L14.5054 7.61173L11.5171 10.6001C10.7734 10.6001 10.0297 10.6001 9.28604 10.6001ZM5.35449 10.6001L8.34283 7.61173L5.35449 4.62793C6.09818 4.62793 6.84186 4.62793 7.58554 4.62793L10.5739 7.61173L7.58554 10.6001C6.84186 10.6001 6.09818 10.6001 5.35449 10.6001Z" fill="white"/>
</svg>
