<svg width="61" height="16" viewBox="0 0 61 16" fill="none" xmlns="http://www.w3.org/2000/svg">
<path d="M23.2855 6.58185C23.1292 7.75384 22.1916 7.75384 21.3321 7.75384H20.8633L21.254 5.48799C21.254 5.33173 21.4103 5.25359 21.5665 5.25359H21.8009C22.426 5.25359 22.9729 5.2536 23.2855 5.56613C23.2855 5.87866 23.2855 6.19119 23.2855 6.58185ZM22.8948 3.45654H19.5351C19.3007 3.45654 19.1444 3.61281 19.0663 3.84721L17.738 12.4418C17.738 12.5981 17.8162 12.7543 18.0506 12.7543H19.6132C19.8476 12.7543 20.0039 12.5981 20.082 12.3637L20.4727 10.0197C20.4727 9.78529 20.7071 9.62903 20.9415 9.62903H22.0353C24.2231 9.62903 25.4732 8.53517 25.8638 6.42559C26.0201 5.48799 25.8638 4.7848 25.4732 4.23787C24.8481 3.76907 23.9887 3.45654 22.8948 3.45654Z" fill="#263577"/>
<path d="M30.6298 9.70687C30.4736 10.6445 29.7704 11.2695 28.8328 11.2695C28.364 11.2695 27.9733 11.1133 27.7389 10.8007C27.5045 10.4882 27.4264 10.0975 27.5045 9.70687C27.6608 8.76927 28.364 8.14421 29.3016 8.14421C29.7704 8.14421 30.161 8.30048 30.3954 8.61301C30.5517 8.84741 30.708 9.23807 30.6298 9.70687ZM32.8176 6.58156H31.2549C31.0986 6.58156 31.0205 6.65969 30.9424 6.81596L30.8642 7.28475L30.7861 7.12849C30.4736 6.65969 29.6922 6.42529 28.9109 6.42529C27.1139 6.42529 25.6293 7.75355 25.3168 9.62874C25.1605 10.5663 25.3949 11.4258 25.9419 12.0508C26.4107 12.5978 27.1139 12.8322 27.9733 12.8322C29.3797 12.8322 30.161 11.8946 30.161 11.8946L30.0829 12.3634C30.0829 12.5196 30.161 12.6759 30.3954 12.6759H31.8018C32.0362 12.6759 32.1925 12.5196 32.2706 12.2852L33.1301 6.81596C33.1301 6.73782 33.052 6.58156 32.8176 6.58156Z" fill="#263577"/>
<path d="M41.3338 6.58154H39.693C39.5367 6.58154 39.3804 6.65968 39.3023 6.81594L37.1146 10.0975L36.177 6.97221C36.0989 6.73781 35.9426 6.65967 35.7082 6.65967H34.1456C33.9893 6.65967 33.833 6.81594 33.9112 7.05034L35.7082 12.2071L34.0674 14.5511C33.9111 14.7073 34.0674 15.0199 34.3018 15.0199H35.9426C36.0989 15.0199 36.2552 14.9417 36.3333 14.7855L41.6463 7.05034C41.7244 6.81594 41.5682 6.58154 41.3338 6.58154Z" fill="#263577"/>
<path d="M47.0379 6.58185C46.8816 7.75384 45.944 7.75384 45.0846 7.75384H44.6158L45.0064 5.48799C45.0064 5.33173 45.1627 5.25359 45.319 5.25359H45.5534C46.1784 5.25359 46.7254 5.2536 47.0379 5.56613C47.116 5.87866 47.116 6.19119 47.0379 6.58185ZM46.6472 3.45654H43.2875C43.0531 3.45654 42.8969 3.61281 42.8187 3.84721L41.4905 12.4418C41.4905 12.5981 41.5686 12.7543 41.803 12.7543H43.5219C43.6782 12.7543 43.8345 12.6762 43.8345 12.4418L44.2251 10.0197C44.2251 9.78529 44.4595 9.62903 44.6939 9.62903H45.7878C47.9755 9.62903 49.2256 8.53517 49.6163 6.42559C49.7726 5.48799 49.6163 4.7848 49.2256 4.23787C48.6787 3.76907 47.8192 3.45654 46.6472 3.45654Z" fill="#2199D6"/>
<path d="M54.4606 9.70687C54.3044 10.6445 53.6012 11.2695 52.6636 11.2695C52.1948 11.2695 51.8041 11.1133 51.5697 10.8007C51.3353 10.4882 51.2572 10.0975 51.3353 9.70687C51.4916 8.76927 52.1948 8.14421 53.1324 8.14421C53.6012 8.14421 53.9919 8.30048 54.2262 8.61301C54.3825 8.84741 54.5388 9.23807 54.4606 9.70687ZM56.6484 6.58156H55.0857C54.9294 6.58156 54.8513 6.65969 54.7732 6.81596L54.695 7.28475L54.6169 7.12849C54.3044 6.65969 53.5231 6.42529 52.7417 6.42529C50.9447 6.42529 49.4602 7.75355 49.1476 9.62874C48.9914 10.5663 49.2257 11.4258 49.7727 12.0508C50.2415 12.5978 50.9447 12.8322 51.8041 12.8322C53.2105 12.8322 53.9918 11.8946 53.9918 11.8946L53.9137 12.3634C53.9137 12.5196 53.9919 12.6759 54.2262 12.6759H55.6326C55.867 12.6759 56.0233 12.5196 56.1014 12.2852L56.9609 6.81596C56.9609 6.73782 56.8046 6.58156 56.6484 6.58156Z" fill="#2199D6"/>
<path d="M58.5233 3.69094L57.1169 12.4418C57.1169 12.5981 57.1951 12.7543 57.4295 12.7543H58.8359C59.0703 12.7543 59.2265 12.5981 59.3047 12.3637L60.6329 3.76907C60.6329 3.61281 60.5548 3.45654 60.3204 3.45654H58.7577C58.6796 3.45654 58.6015 3.61281 58.5233 3.69094Z" fill="#2199D6"/>
<path d="M3.83039 14.3949L4.06477 12.7541H3.51785H0.783203L2.6584 0.799811C2.6584 0.799811 2.65839 0.72168 2.73652 0.72168H2.81466H7.42448C8.909 0.72168 10.0029 1.03421 10.5498 1.65927C10.7842 1.9718 10.9405 2.28434 11.0186 2.59687C11.0967 2.98753 11.0967 3.37819 11.0186 3.92512V4.23765L11.253 4.39392C11.4874 4.47205 11.6437 4.62832 11.7999 4.78458C12.0343 5.01898 12.1906 5.33151 12.1906 5.72217C12.2687 6.11284 12.2687 6.58163 12.1124 7.12856C11.9562 7.75362 11.7999 8.22242 11.5655 8.69121C11.3311 9.08188 11.0186 9.39441 10.7061 9.70694C10.3935 9.94134 9.92473 10.0976 9.53406 10.2539C9.06527 10.332 8.59648 10.4101 8.04955 10.4101H7.65888C7.42449 10.4101 7.19009 10.4883 6.95569 10.6445C6.79943 10.8008 6.64316 11.0352 6.56503 11.2696V11.4259L6.09623 14.3168V14.3949V14.473C6.09623 14.473 6.09622 14.473 6.01809 14.473H3.83039V14.3949Z" fill="#263577"/>
<path d="M11.5655 3.9248C11.5655 4.00294 11.5655 4.08107 11.4874 4.15921C10.8623 7.28451 8.83087 8.30024 6.17435 8.30024H4.84609C4.53356 8.30024 4.22104 8.53464 4.22104 8.84717L3.51784 13.2226L3.36157 14.4727C3.36157 14.7071 3.51783 14.8634 3.6741 14.8634H6.09622C6.40875 14.8634 6.64314 14.629 6.64314 14.3946V14.2383L7.11194 11.4255V11.2693C7.19008 10.9567 7.42447 10.8005 7.65887 10.8005H8.04953C10.3935 10.8005 12.1906 9.86289 12.6594 7.12825C12.8938 5.95626 12.7375 5.01866 12.1906 4.3936C12.0343 4.23734 11.7999 4.08107 11.5655 3.9248Z" fill="#2199D6"/>
<path d="M10.9403 3.69094C10.8621 3.69094 10.784 3.61281 10.6277 3.61281C10.5496 3.61281 10.3933 3.53467 10.3152 3.53467C9.92454 3.45654 9.53388 3.45654 9.14323 3.45654H5.54918C5.47105 3.45654 5.39292 3.45654 5.31478 3.53467C5.15852 3.61281 5.00226 3.76907 5.00226 3.92534L4.22095 8.76958V8.92584C4.29908 8.61331 4.53346 8.37891 4.84599 8.37891H6.17424C8.83071 8.37891 10.8621 7.28505 11.4872 4.23787C11.4872 4.15974 11.4872 4.08161 11.5653 4.00347C11.409 3.92534 11.2528 3.84721 11.0965 3.76908C11.0184 3.69094 10.9403 3.69094 10.9403 3.69094Z" fill="#252C5E"/>
<path d="M5.00217 3.92516C5.00217 3.7689 5.15843 3.61263 5.3147 3.5345C5.39283 3.5345 5.47097 3.45637 5.5491 3.45637H9.1432C9.53386 3.45637 10.0027 3.45637 10.3152 3.5345C10.3933 3.5345 10.5496 3.5345 10.6277 3.61264C10.7059 3.61264 10.784 3.69077 10.9403 3.69077C11.0184 3.69077 11.0184 3.69077 11.0965 3.7689C11.2528 3.84703 11.409 3.92517 11.5653 4.0033C11.7216 2.83131 11.5653 2.04998 10.9403 1.34679C10.2371 0.565459 8.98693 0.25293 7.42428 0.25293H2.81445C2.50192 0.25293 2.18939 0.487325 2.18939 0.799856L0.314209 12.8323C0.314209 13.0667 0.470474 13.3011 0.704873 13.3011H3.51764L4.22084 8.7694L5.00217 3.92516Z" fill="#263577"/>
</svg>
