<svg width="100" height="100" viewBox="0 0 100 100" fill="none" xmlns="http://www.w3.org/2000/svg">
<path d="M67.692 61.8372C68.6273 60.2501 68.4142 58.1676 67.0527 56.8061L58.5248 48.2774C62.7447 48.6858 66.9941 46.6175 69.9811 43.6309C74.8722 38.7394 76.5139 31.133 72.1763 26.7966C72.1763 26.7966 72.1763 26.7962 72.1759 26.7962C72.1759 26.7962 72.1759 26.7962 72.1759 26.7958C67.6876 22.3091 60.0221 24.3118 55.3421 28.9919C52.2868 32.0468 50.2945 36.3161 50.694 40.447L42.1669 31.9195C40.805 30.5588 38.7234 30.3457 37.1363 31.2806L30.0689 24.2144C28.4523 22.5961 25.832 22.5945 24.2142 24.2136C22.5959 25.831 22.5947 28.4513 24.2138 30.0687L31.2803 37.1361C30.3455 38.7236 30.5586 40.8056 31.9192 42.1675L41.3816 51.6295L26.0589 64.8824C23.6679 66.909 23.2073 70.7788 25.7123 73.2842C28.202 75.7746 32.0656 75.3545 34.11 72.9425L47.3447 57.5922L56.8055 67.0526C58.1726 68.4193 60.2555 68.6243 61.8369 67.6919L68.9306 74.786C70.5476 76.4038 73.1678 76.4054 74.7857 74.7864C76.4043 73.1693 76.4051 70.5491 74.7861 68.9312L67.692 61.8372ZM70.6798 28.2932C70.7473 30.5434 66.0155 35.8846 64.1252 37.775C61.8329 40.0677 56.7201 44.3955 54.643 44.3296C54.575 42.0794 59.2943 36.7507 61.1968 34.8482C63.1135 32.9316 68.4858 28.2147 70.6798 28.2932ZM68.5173 42.1671C64.9856 45.698 60.3084 47.0437 56.9199 45.8173C59.8466 44.51 63.3197 41.5084 65.5889 39.2392C67.8578 36.9703 70.8565 33.5009 72.1666 30.5729C73.5241 34.3371 71.6519 39.0325 68.5173 42.1671ZM56.8059 30.4561C60.34 26.922 65.0143 25.5771 68.4029 26.8047C65.4741 28.1136 62.0035 31.1132 59.733 33.384C57.4638 35.6533 54.4634 39.1247 53.1549 42.0531C51.9285 38.6638 53.2746 33.9865 56.8059 30.4561ZM25.678 25.6778C26.4847 24.8703 27.794 24.8666 28.6047 25.6778L35.5791 32.6513L32.6515 35.5797L25.6776 28.6045C24.8705 27.7982 24.866 26.4889 25.678 25.6778ZM32.5367 71.5976C31.2617 73.1014 28.8028 73.4475 27.1765 71.8204C25.5587 70.2026 25.8927 67.7368 27.4054 66.455L42.8494 53.0974L45.8773 56.1244L32.5367 71.5976ZM58.2696 65.5888L33.3834 40.7038C32.5767 39.8962 32.5767 38.5825 33.3834 37.7754L37.7752 33.3836C38.5818 32.5773 39.8956 32.5765 40.7035 33.3832C40.7399 33.42 65.5291 58.2105 65.5885 58.2699C66.396 59.077 66.396 60.3904 65.5885 61.1979L61.1976 65.5888C60.3905 66.3959 59.0767 66.3959 58.2696 65.5888ZM73.3219 73.3226C72.5132 74.1317 71.2043 74.1321 70.3951 73.3222L63.3937 66.3207L66.3204 63.394L73.3223 70.3954C74.1294 71.2021 74.1338 72.511 73.3219 73.3226Z" fill="#50B3EC"/>
<path d="M49.0576 50.9502C49.0576 51.522 48.5942 51.9854 48.0224 51.9854C47.4506 51.9854 46.9872 51.522 46.9872 50.9502C46.9872 50.3784 47.4506 49.9151 48.0224 49.9151C48.5942 49.9151 49.0576 50.3784 49.0576 50.9502Z" fill="#50B3EC"/>
<path d="M37.7752 39.2388C37.3708 38.8348 36.7157 38.8348 36.3114 39.2388C35.907 39.6431 35.907 40.2986 36.3114 40.7029L43.9966 48.3882C44.4014 48.7925 45.0564 48.7925 45.4608 48.3882C45.8651 47.9842 45.8651 47.3288 45.4608 46.9244L37.7752 39.2388Z" fill="#50B3EC"/>
<rect x="1" y="1" width="98" height="98" stroke="#50B3EC" stroke-width="2"/>
</svg>
