<svg width="100" height="100" viewBox="0 0 100 100" fill="none" xmlns="http://www.w3.org/2000/svg">
<path fill-rule="evenodd" clip-rule="evenodd" d="M61.5951 73.712C61.049 75.3619 59.8995 76.6295 58.4832 77.3449C57.1232 78.032 55.5163 78.2099 53.9597 77.7289L31.2042 69.8951C29.5867 69.338 28.3439 68.1656 27.6421 66.7209C26.9416 65.2776 26.7809 63.562 27.3262 61.9156L36.3178 34.7525C36.76 33.417 37.6054 32.2929 38.7574 31.5153L49.5704 22.3286C50.2679 21.7059 51.4327 21.2388 52.3421 21.0849C53.3398 20.9153 54.3643 21.0014 55.3201 21.3297L63.4493 24.1116C64.5331 24.4851 65.4485 25.1344 66.1451 25.9563C66.8554 26.7948 67.3389 27.8137 67.5427 28.9026L70.6823 42.8977C70.8435 43.503 70.9104 44.1179 70.8921 44.7259C70.8729 45.3582 70.7629 45.9714 70.5714 46.5476L69.1398 50.8763C70.0718 51.1973 71.0699 51.4834 72.1438 51.7274C72.7326 51.86 73.1044 52.454 72.9739 53.0546C72.8443 53.6552 72.2615 54.0348 71.6727 53.9022C70.5207 53.6404 69.4467 53.3333 68.4418 52.9889L61.5951 73.712ZM43.6323 59.9269C43.6323 59.4172 43.3637 59.0328 42.8908 58.8697L37.208 56.9189C36.6359 56.7236 36.0168 57.0385 35.825 57.6221C35.6335 58.2052 35.9422 58.8371 36.5144 59.0324L42.1652 60.9723C42.2824 61.0163 42.4091 61.0402 42.5408 61.0402C43.1437 61.0402 43.6323 60.4792 43.6323 59.9269ZM51.0166 61.6594C50.3391 61.4572 49.6169 62.0191 49.6169 62.731C49.6169 63.2289 49.8629 63.5933 50.3178 63.7712C50.3421 63.7794 50.3656 63.7886 50.3903 63.7964L55.9989 65.7216C56.571 65.9169 57.1905 65.6024 57.382 65.0188C57.5734 64.4352 57.2647 63.8034 56.6926 63.6081L51.0166 61.6594ZM46.5992 60.2283C45.9968 60.2283 45.5078 60.7266 45.5078 61.3415C45.5078 61.9565 45.9968 62.4548 46.5992 62.4548C47.2021 62.4548 47.6907 61.9565 47.6907 61.3415C47.6907 60.7266 47.2021 60.2283 46.5992 60.2283ZM54.2611 34.8878C54.273 34.2728 54.7714 33.784 55.3743 33.7962C55.9771 33.808 56.4564 34.3163 56.4444 34.9312C56.4444 34.9439 56.3988 36.3254 56.8848 38.3119C56.9181 38.2963 56.9505 38.2806 56.9829 38.2641C57.8245 37.8392 58.5067 37.0873 58.8303 36.1102C59.1551 35.1295 59.0592 34.1067 58.6418 33.2465C58.2248 32.3881 57.4881 31.6923 56.5301 31.3622C55.5683 31.0309 54.5659 31.1287 53.7226 31.5549C52.881 31.9798 52.1989 32.7312 51.8753 33.7088C51.5504 34.6899 51.6463 35.7123 52.0637 36.5725C52.4807 37.4309 53.2174 38.1267 54.1754 38.4568C54.3549 38.5185 54.5357 38.565 54.7164 38.5977C54.2121 36.4124 54.2607 34.9012 54.2611 34.8878ZM57.5589 40.4441C58.8128 43.6557 61.4715 47.5552 67.0997 50.0731L68.4994 45.8313C68.6247 45.4539 68.6968 45.0612 68.7087 44.6646C68.7198 44.2788 68.6751 43.8783 68.5676 43.4743L65.4109 29.4005C65.2783 28.6547 64.9799 27.9902 64.4926 27.4153C64.0428 26.8843 63.4532 26.4656 62.7556 26.2251L54.6269 23.4432C54.0078 23.2305 53.3427 23.1753 52.693 23.2853C52.5318 23.3127 51.3061 23.782 50.9309 24.0698L39.9955 33.3522C39.2447 33.8488 38.676 34.5955 38.3899 35.46L29.3978 62.6231C29.0452 63.6886 29.1497 64.7997 29.6029 65.7338C30.0556 66.6666 30.8563 67.4228 31.8975 67.7816L54.4657 75.5541C55.5103 75.9137 56.5996 75.8076 57.5158 75.3449C58.4295 74.8831 59.1709 74.0672 59.5227 73.0057L66.3975 52.197C59.7738 49.3069 56.7621 44.6437 55.3939 40.8851C53.1675 40.9008 51.1023 39.6174 50.1029 37.5592C48.6678 34.6029 49.8574 31.0182 52.7548 29.5549C55.6531 28.0911 59.1675 29.3044 60.6022 32.2598C61.2668 33.6288 61.419 35.2561 60.9023 36.8177C60.3843 38.3833 59.2941 39.5857 57.9503 40.2641C57.8224 40.3289 57.6919 40.3889 57.5589 40.4441ZM40.508 46.9677L59.9929 53.6569C60.5651 53.8522 61.1841 53.5373 61.3756 52.9537C61.567 52.3701 61.2587 51.7387 60.6862 51.5434L41.2016 44.8542C40.6295 44.6589 40.0104 44.9733 39.819 45.5569C39.6276 46.1405 39.9358 46.7724 40.508 46.9677ZM38.511 52.9998L57.9959 59.689C58.5681 59.8847 59.1871 59.5699 59.3785 58.9863C59.57 58.4027 59.2613 57.7712 58.6891 57.576L39.2046 50.8868C38.6325 50.6911 38.0134 51.0059 37.822 51.5895C37.6306 52.1731 37.9388 52.8045 38.511 52.9998Z" fill="#FFC34F"/>
<rect x="1" y="1" width="98" height="98" stroke="#FFC34F" stroke-width="2"/>
</svg>
