<svg width="100" height="100" viewBox="0 0 100 100" fill="none" xmlns="http://www.w3.org/2000/svg">
<rect x="1" y="1" width="98" height="98" stroke="#E16A5D" stroke-width="2"/>
<path fill-rule="evenodd" clip-rule="evenodd" d="M49.4998 23C50.7632 23 51.635 23.9999 52.4986 24.9903C53.0101 25.577 53.517 26.1583 53.8273 26.2147C54.145 26.2728 54.8272 25.8926 55.5053 25.5144C56.6271 24.8885 57.7427 24.2669 58.885 24.6937C60.0401 25.1254 60.4727 26.3408 60.9037 27.552C61.159 28.2689 61.4131 28.9833 61.6561 29.1263C61.8995 29.2692 62.6478 29.1378 63.3948 29.0068C64.6492 28.7864 65.9019 28.5664 66.832 29.3537C67.7572 30.1373 67.7515 31.4165 67.7457 32.6957C67.7424 33.4509 67.7387 34.2061 67.9206 34.4223C68.1024 34.6391 68.8437 34.7643 69.5854 34.8895C70.8443 35.1025 72.1052 35.3155 72.7222 36.3723C73.3374 37.4266 72.913 38.6292 72.487 39.8359C72.2313 40.5597 71.9747 41.2861 72.0781 41.565C72.1816 41.8431 72.8379 42.2262 73.4975 42.6114C74.6156 43.264 75.7403 43.9203 75.9632 45.1526C76.1824 46.3638 75.3848 47.3711 74.5803 48.3879C74.087 49.0116 73.5891 49.6407 73.5891 50C73.5891 50.3597 74.087 50.9888 74.5803 51.6125C75.3848 52.6289 76.1824 53.6362 75.9632 54.8474C75.7403 56.0797 74.6156 56.7364 73.4975 57.389C72.8379 57.7738 72.1816 58.1569 72.0781 58.4354C71.9747 58.7144 72.2313 59.4407 72.487 60.1646C72.913 61.3713 73.3374 62.5739 72.7222 63.6277C72.1052 64.6849 70.8443 64.8979 69.5854 65.1105C68.8437 65.2361 68.1024 65.3614 67.9206 65.5777C67.7387 65.7944 67.7424 66.5495 67.7457 67.3047C67.7515 68.5839 67.7572 69.8631 66.832 70.6467C65.9019 71.4341 64.6492 71.2141 63.3948 70.9936C62.6478 70.8626 61.8995 70.7312 61.6561 70.8742C61.4131 71.0171 61.159 71.7315 60.9037 72.4484C60.4727 73.6596 60.0401 74.875 58.885 75.3067C57.7427 75.7336 56.6271 75.1115 55.5053 74.4861C54.8272 74.1078 54.1454 73.7276 53.8273 73.7857C53.517 73.8421 53.0101 74.4234 52.4986 75.0097C51.635 76.0001 50.7632 77 49.4998 77C48.2368 77 47.365 76.0001 46.501 75.0097C45.9899 74.423 45.483 73.8417 45.1723 73.7853C44.8546 73.7272 44.1728 74.1074 43.4943 74.4856C42.3725 75.1115 41.2573 75.7331 40.115 75.3063C38.9595 74.8746 38.5273 73.6592 38.0959 72.448C37.841 71.7315 37.5865 71.0167 37.3435 70.8737C37.1005 70.7308 36.3523 70.8622 35.6048 70.9936C34.3504 71.2136 33.0977 71.4336 32.1676 70.6463C31.2424 69.8627 31.2481 68.5835 31.2539 67.3043C31.2576 66.5491 31.2609 65.7939 31.079 65.5777C30.8972 65.3609 30.1563 65.2357 29.4142 65.1105C28.1553 64.8979 26.8944 64.6845 26.2774 63.6277C25.6626 62.5734 26.087 61.3708 26.513 60.1641C26.7688 59.4403 27.0249 58.7139 26.9215 58.435C26.8184 58.1569 26.1621 57.7738 25.5021 57.3886C24.3844 56.736 23.2593 56.0797 23.0368 54.8474C22.8176 53.6362 23.6148 52.6285 24.4193 51.6121C24.9131 50.9884 25.411 50.3593 25.411 49.9996C25.411 49.6403 24.9131 49.0112 24.4193 48.3875C23.6148 47.3707 22.8176 46.3638 23.0368 45.1521C23.2593 43.9199 24.3844 43.2636 25.5021 42.611C26.1621 42.2258 26.8184 41.8427 26.9215 41.5646C27.0249 41.2856 26.7688 40.5593 26.513 39.8354C26.087 38.6287 25.6622 37.4261 26.2774 36.3723C26.8944 35.3151 28.1553 35.1021 29.4142 34.8895C30.1563 34.7639 30.8972 34.6386 31.079 34.4223C31.2609 34.2056 31.2576 33.4505 31.2539 32.6953C31.2481 31.4161 31.2424 30.1364 32.1676 29.3537C33.0977 28.5664 34.3504 28.7859 35.6048 29.0064C36.3523 29.1374 37.1005 29.2688 37.3435 29.1258C37.5865 28.9833 37.841 28.2685 38.0959 27.5516C38.5269 26.3408 38.9599 25.125 40.115 24.6933C41.2573 24.2664 42.3725 24.8885 43.4943 25.5139C44.1728 25.8922 44.8546 26.2724 45.1723 26.2143C45.483 26.1579 45.9899 25.5766 46.501 24.9903C47.365 23.9999 48.2368 23 49.4998 23ZM62.5213 36.624C61.9409 36.624 61.4705 37.0961 61.4705 37.6787C61.4705 37.9382 61.5641 38.176 61.7193 38.3597V38.3601L61.7189 38.3597L61.7222 38.3634C61.7435 38.3885 61.7661 38.4124 61.7895 38.4351C64.6155 41.4591 66.346 45.5266 66.346 50C66.346 54.6695 64.4608 58.8965 61.4123 61.9563C58.3638 65.0165 54.152 66.9088 49.4998 66.9088C47.5082 66.9088 45.5975 66.5619 43.8243 65.925C43.7927 65.9118 43.7599 65.9002 43.7266 65.8899L43.7242 65.8887V65.8891C43.6277 65.8599 43.5251 65.8438 43.4192 65.8438C42.8392 65.8438 42.3684 66.3159 42.3684 66.8985C42.3684 67.3764 42.6853 67.7797 43.1192 67.9095C45.1128 68.6251 47.2611 69.0153 49.4998 69.0153C54.7312 69.0153 59.4675 66.8865 62.8957 63.4456C66.3243 60.0043 68.4447 55.2508 68.4447 50C68.4447 44.9754 66.5028 40.4065 63.332 37.0072C63.1391 36.7731 62.8477 36.624 62.5213 36.624ZM59.3501 33.9469C58.7701 33.9469 58.2993 34.4191 58.2993 35.0016C58.2993 35.5837 58.7701 36.0563 59.3501 36.0563C59.9305 36.0563 60.4009 35.5837 60.4009 35.0016C60.4009 34.4191 59.9305 33.9469 59.3501 33.9469ZM55.9396 32.1119C53.9291 31.3827 51.761 30.9847 49.4998 30.9847C44.2684 30.9847 39.5325 33.1131 36.1039 36.5544C32.6757 39.9953 30.5549 44.7492 30.5549 50C30.5549 55.0139 32.4886 59.5742 35.6475 62.9714C35.8404 63.203 36.1302 63.3504 36.4545 63.3504C37.0349 63.3504 37.5052 62.8783 37.5052 62.2958C37.5052 62.037 37.4125 61.8001 37.2581 61.6168V61.616L37.254 61.6115C37.2335 61.5871 37.2118 61.5641 37.1892 61.5422C34.3759 58.5203 32.6536 54.4622 32.6536 50C32.6536 45.3305 34.5392 41.1031 37.5878 38.0437C40.6363 34.9835 44.848 33.0912 49.4998 33.0912C51.5103 33.0912 53.4382 33.4447 55.2258 34.0932H55.2262C55.3526 34.1471 55.4913 34.1768 55.6375 34.1768C56.2179 34.1768 56.6882 33.7047 56.6882 33.1221C56.6882 32.645 56.3726 32.2421 55.9396 32.1119ZM39.6495 63.9437C39.0695 63.9437 38.5987 64.4158 38.5987 64.9984C38.5987 65.5809 39.0695 66.0531 39.6495 66.0531C40.2299 66.0531 40.7003 65.5809 40.7003 64.9984C40.7003 64.4158 40.2299 63.9437 39.6495 63.9437ZM43.3823 39.6344C42.1775 39.6344 41.0869 40.1243 40.2972 40.9169C39.5079 41.7096 39.0194 42.8042 39.0194 44.0134C39.0194 45.2222 39.5079 46.3172 40.2972 47.1095C41.0869 47.9022 42.1775 48.3924 43.3823 48.3924C44.587 48.3924 45.6776 47.9022 46.4673 47.1095C47.2566 46.3172 47.7451 45.2222 47.7451 44.0134C47.7451 42.8042 47.2566 41.7096 46.4673 40.9169C45.6776 40.1243 44.587 39.6344 43.3823 39.6344ZM44.9835 42.4062C44.5738 41.9951 44.0078 41.7405 43.3823 41.7405C42.7571 41.7405 42.1907 41.9951 41.781 42.4062C41.3714 42.8174 41.1181 43.3855 41.1181 44.0134C41.1181 44.6409 41.3714 45.2094 41.781 45.6206C42.1907 46.0313 42.7571 46.2859 43.3823 46.2859C44.0078 46.2859 44.5738 46.0317 44.9835 45.6206C45.3931 45.2094 45.6464 44.6409 45.6464 44.0134C45.6464 43.3855 45.3931 42.8174 44.9835 42.4062ZM54.7447 40.1115L42.5092 58.7366C42.1923 59.2207 42.3261 59.8708 42.8084 60.1889C43.2907 60.5069 43.9384 60.3726 44.2553 59.8885L56.4908 41.2634C56.8077 40.7793 56.6739 40.1292 56.1916 39.8111C55.7093 39.4931 55.0616 39.6274 54.7447 40.1115ZM55.6178 51.6076C54.413 51.6076 53.322 52.0978 52.5327 52.8901C51.7434 53.6828 51.2549 54.7778 51.2549 55.9866C51.2549 57.1958 51.7434 58.2904 52.5327 59.0831C53.3224 59.8753 54.413 60.3656 55.6178 60.3656C56.8225 60.3656 57.9131 59.8753 58.7024 59.0831C59.4921 58.2904 59.9806 57.1958 59.9806 55.9866C59.9806 54.7774 59.4921 53.6828 58.7024 52.8901C57.9131 52.0978 56.8225 51.6076 55.6178 51.6076ZM57.2186 54.3794C56.8093 53.9687 56.2429 53.7141 55.6178 53.7141C54.9922 53.7141 54.4262 53.9683 54.0165 54.3794C53.6069 54.7906 53.3532 55.3591 53.3532 55.9866C53.3532 56.6145 53.6069 57.1826 54.0165 57.5938C54.4262 58.0049 54.9922 58.2591 55.6178 58.2591C56.2429 58.2591 56.8093 58.0049 57.2186 57.5938C57.6286 57.1826 57.8819 56.6145 57.8819 55.9866C57.8819 55.3591 57.6286 54.791 57.2186 54.3794ZM50.9249 26.3729C50.3753 25.7426 49.8208 25.1065 49.5002 25.1065C49.1792 25.1065 48.6247 25.7426 48.0751 26.3729C47.3227 27.2356 46.5765 28.0913 45.5413 28.28C44.4905 28.4716 43.4816 27.9088 42.478 27.3489C41.7786 26.9588 41.0828 26.5711 40.8448 26.6601C40.61 26.7478 40.3403 27.5051 40.0719 28.2594C39.6897 29.3327 39.3092 30.4026 38.4013 30.9361C37.4872 31.4738 36.365 31.2768 35.2444 31.0799C34.4707 30.9444 33.6974 30.8084 33.5209 30.9584C33.3378 31.1133 33.3411 31.9006 33.3448 32.6875C33.3501 33.8307 33.3551 34.974 32.6778 35.7803C32.0026 36.584 30.8812 36.7736 29.7586 36.9631C28.9816 37.0945 28.2025 37.2259 28.0814 37.434C27.9607 37.6404 28.2243 38.3873 28.489 39.1363C28.8699 40.2153 29.2521 41.2976 28.881 42.2971C28.5149 43.2838 27.5359 43.8552 26.5516 44.4299C25.8497 44.8394 25.1433 45.2518 25.0945 45.5229C25.0448 45.7977 25.5497 46.4355 26.0591 47.0794C26.7815 47.992 27.5101 48.9124 27.5101 50C27.5101 51.0881 26.7815 52.008 26.0591 52.921C25.5497 53.5645 25.0448 54.2023 25.0945 54.4775C25.1433 54.7486 25.8497 55.1606 26.5516 55.5705C27.5359 56.1448 28.5149 56.7162 28.881 57.7029C29.2521 58.7028 28.8699 59.7851 28.489 60.8641C28.2243 61.6131 27.9607 62.3596 28.0814 62.5664C28.2025 62.7741 28.9812 62.9059 29.7586 63.0369C30.8816 63.2269 32.0026 63.416 32.6778 64.2202C33.3551 65.026 33.3501 66.1693 33.3448 67.3129C33.3411 68.0998 33.3378 68.8867 33.5209 69.0421C33.6978 69.1916 34.4707 69.0561 35.2444 68.9201C36.365 68.7236 37.4872 68.5262 38.4013 69.0639C39.3092 69.5974 39.6901 70.6673 40.0719 71.7406C40.3403 72.4949 40.61 73.2526 40.8448 73.3399C41.0828 73.4289 41.7786 73.0412 42.478 72.6511C43.4816 72.0916 44.4905 71.5288 45.5413 71.7204C46.5769 71.9087 47.3227 72.7644 48.0751 73.6275C48.6247 74.2578 49.1792 74.8939 49.5002 74.8939C49.8208 74.8939 50.3753 74.2578 50.9249 73.6275C51.6773 72.7644 52.4235 71.9087 53.4583 71.7204C54.5091 71.5288 55.5184 72.0916 56.522 72.6511C57.2214 73.0412 57.9172 73.4289 58.1552 73.3399C58.39 73.2526 58.6597 72.4949 58.9281 71.7406C59.3103 70.6673 59.6908 69.5978 60.5983 69.0639C61.5128 68.5262 62.6346 68.7232 63.7552 68.9201C64.5293 69.0561 65.3022 69.192 65.4795 69.0421C65.6622 68.8867 65.6589 68.0998 65.6552 67.3129C65.6499 66.1697 65.645 65.026 66.3222 64.2202C66.9974 63.416 68.1184 63.2269 69.241 63.0369C70.0184 62.9059 70.7975 62.7741 70.9186 62.5664C71.0393 62.3596 70.7757 61.6131 70.511 60.8641C70.1301 59.7851 69.7479 58.7028 70.119 57.7029C70.4847 56.7162 71.4641 56.1448 72.448 55.5705C73.1503 55.1606 73.8563 54.7486 73.9055 54.4775C73.9552 54.2023 73.4503 53.5645 72.9409 52.921C72.2185 52.008 71.49 51.0881 71.49 50C71.49 48.9124 72.2185 47.992 72.9409 47.0794C73.4503 46.4355 73.9552 45.7977 73.9055 45.5229C73.8563 45.2518 73.1503 44.8394 72.448 44.4299C71.4641 43.8552 70.4847 43.2838 70.119 42.2971C69.7479 41.2976 70.1301 40.2153 70.511 39.1363C70.7757 38.3873 71.0393 37.6404 70.9186 37.434C70.7975 37.2259 70.0184 37.0945 69.241 36.9631C68.1184 36.7736 66.9974 36.584 66.3222 35.7803C65.645 34.974 65.6499 33.8307 65.6552 32.6875C65.6589 31.9006 65.6622 31.1133 65.4795 30.9584C65.3022 30.8084 64.5293 30.9444 63.7552 31.0799C62.6346 31.2768 61.5128 31.4738 60.5987 30.9361C59.6908 30.4026 59.3099 29.3327 58.9281 28.2594C58.6597 27.5051 58.39 26.7478 58.1552 26.6601C57.9172 26.5711 57.2214 26.9588 56.522 27.3489C55.518 27.9088 54.5091 28.4716 53.4583 28.28C52.4231 28.0913 51.6773 27.2356 50.9249 26.3729Z" fill="#E16A5D"/>
</svg>
