<svg xmlns="http://www.w3.org/2000/svg" viewBox="0 0 135 40"><defs><style>.cls-1{fill:#a6a6a6;}.cls-2{fill:#fff;}.cls-3{fill:#892089;}.cls-4{fill:#bc58b9;}.cls-5{fill:#fdfdfd;}.cls-6{fill:#090909;}.cls-7{fill:#c8ccdb;}.cls-8{fill:#ecebeb;}.cls-9{fill:#d6e6f2;}.cls-10{fill:#fcfdfc;}</style></defs><title>Asset 13</title><g id="Layer_2" data-name="Layer 2"><g id="artwork"><rect width="135" height="40" rx="5"/><path class="cls-1" d="M130,.8A4.2,4.2,0,0,1,134.2,5V35a4.2,4.2,0,0,1-4.2,4.2H5A4.2,4.2,0,0,1,.8,35V5A4.2,4.2,0,0,1,5,.8H130m0-.8H5A5,5,0,0,0,0,5V35a5,5,0,0,0,5,5H130a5,5,0,0,0,5-5V5a5,5,0,0,0-5-5Z"/><path class="cls-2" d="M39.14,8.69h1.3l2.39,5.82-.74.91Zm4.11,6.45a4.26,4.26,0,0,1-.49,1,1.81,1.81,0,0,1-.66.58,1.76,1.76,0,0,1-.88.2h-.95V15.78h.95a.84.84,0,0,0,.45-.12A1.37,1.37,0,0,0,42,15.3a3.2,3.2,0,0,0,.28-.61l2.08-6h1.24Z"/><path class="cls-2" d="M48.24,16.9l-.56-.29a2.1,2.1,0,0,1-.86-.86,2.92,2.92,0,0,1-.29-1.37v-1a2.79,2.79,0,0,1,.29-1.34,2,2,0,0,1,.86-.86A3,3,0,0,1,49,10.93a3.35,3.35,0,0,1,.85.11,2.61,2.61,0,0,1,.72.31,2,2,0,0,1,.53.51l-.82.74a1.72,1.72,0,0,0-.58-.43,1.66,1.66,0,0,0-.69-.16,1.38,1.38,0,0,0-1,.37,1.45,1.45,0,0,0-.36,1v1A1.46,1.46,0,0,0,48,15.44a1.35,1.35,0,0,0,1,.38,1.61,1.61,0,0,0,1.27-.62l.82.79a2,2,0,0,1-.54.5,2.61,2.61,0,0,1-.72.31,3.28,3.28,0,0,1-.84.1Z"/><path class="cls-2" d="M51.67,11h4.51v1H51.67Zm1.68.61H54.5v5.2H53.35Z"/><path class="cls-2" d="M57.94,16.46a1.68,1.68,0,0,1-.53-1.35,1.6,1.6,0,0,1,.49-1.29,2.13,2.13,0,0,1,1.47-.43H61l.08.91H59.37a1,1,0,0,0-.67.2.81.81,0,0,0-.22.61.74.74,0,0,0,.3.65,1.52,1.52,0,0,0,.89.21,2.71,2.71,0,0,0,1-.13A.47.47,0,0,0,61,15.4l.11.82a1.34,1.34,0,0,1-.37.38,1.59,1.59,0,0,1-.51.23,2.59,2.59,0,0,1-.65.07A2.51,2.51,0,0,1,57.94,16.46Zm3-3.32a1.21,1.21,0,0,0-.31-.89,1.13,1.13,0,0,0-.86-.31,2.24,2.24,0,0,0-.68.1,1.93,1.93,0,0,0-.59.3l-.83-.57a2.09,2.09,0,0,1,.87-.62,3,3,0,0,1,1.2-.22,2.73,2.73,0,0,1,1.23.25,1.8,1.8,0,0,1,.78.74,2.38,2.38,0,0,1,.27,1.17v3.73H61Z"/><path class="cls-2" d="M63.79,11h1.14v5.81H63.79Zm.71,2.44h3.56v1H64.5Zm3-2.44H68.6v5.81H67.46Z"/><path class="cls-2" d="M71.32,16.61a2,2,0,0,1-.82-.87,3,3,0,0,1-.28-1.36v-1a2.93,2.93,0,0,1,.28-1.35,2,2,0,0,1,.82-.86,2.73,2.73,0,0,1,1.29-.29,2.67,2.67,0,0,1,1.29.29,1.9,1.9,0,0,1,.82.86A2.93,2.93,0,0,1,75,13.43v1a3,3,0,0,1-.29,1.36,2,2,0,0,1-.82.86,2.67,2.67,0,0,1-1.29.29A2.73,2.73,0,0,1,71.32,16.61Zm2.22-1.17a1.54,1.54,0,0,0,.33-1v-1a1.54,1.54,0,0,0-.33-1,1.2,1.2,0,0,0-.93-.37,1.17,1.17,0,0,0-.92.37,1.54,1.54,0,0,0-.33,1v1a1.54,1.54,0,0,0,.33,1,1.14,1.14,0,0,0,.92.38A1.18,1.18,0,0,0,73.54,15.44Z"/><path class="cls-2" d="M76.63,11h1.13v5.81H76.63Zm.67,4.78h2.15A.68.68,0,0,0,80,15.6a.73.73,0,0,0,.19-.54h0a.79.79,0,0,0-.19-.57.69.69,0,0,0-.52-.2H77.3v-1h2.15a.64.64,0,0,0,.44-.14.54.54,0,0,0,.16-.42.68.68,0,0,0-.16-.48.56.56,0,0,0-.43-.17H77.3V11h2.2a1.91,1.91,0,0,1,1.26.38,1.34,1.34,0,0,1,.44,1.07,1.21,1.21,0,0,1-.33.87,1.57,1.57,0,0,1-.92.44,1.71,1.71,0,0,1,1,.53,1.48,1.48,0,0,1,.36,1h0a1.33,1.33,0,0,1-.48,1.1,2.09,2.09,0,0,1-1.35.39H77.3Z"/><path class="cls-2" d="M86.47,16.81V12.69l.13.15-2.79,4h-1V11H84v4.22l-.13-.14L86.62,11h1v5.8Z"/><path class="cls-2" d="M88.72,11h4.5v1h-4.5Zm1.68.61h1.14v5.2H90.4Z"/><path class="cls-2" d="M94.73,11h1.15v5.81H94.73Zm.56,4.72h2a.74.74,0,0,0,.55-.21.81.81,0,0,0,.21-.58.93.93,0,0,0-.09-.42.81.81,0,0,0-.27-.28.77.77,0,0,0-.4-.1h-2V13.06h2a2.27,2.27,0,0,1,1.06.23,1.81,1.81,0,0,1,.71.66,2,2,0,0,1,0,2,1.57,1.57,0,0,1-.71.66,2.24,2.24,0,0,1-1.06.24h-2Z"/><path class="cls-2" d="M40.25,20.39h2.09V31.48H40.25Zm1,0h6.46v2H41.22Zm5.1,0h2.09V31.48H46.32Z"/><path class="cls-2" d="M50.7,23.56h2.09V34.7H50.7Zm2.73,7.68a2.09,2.09,0,0,1-.74-1l.1-1.8a1.46,1.46,0,0,0,.14.66,1,1,0,0,0,.4.42,1.29,1.29,0,0,0,.64.15,1.12,1.12,0,0,0,.91-.39,1.72,1.72,0,0,0,.32-1.1V26.91a1.81,1.81,0,0,0-.32-1.13,1.13,1.13,0,0,0-.91-.4,1.29,1.29,0,0,0-.64.15,1,1,0,0,0-.4.43,1.6,1.6,0,0,0-.14.69l-.16-1.75a2.83,2.83,0,0,1,.84-1.08,2,2,0,0,1,1.16-.37A2.36,2.36,0,0,1,57,25a5,5,0,0,1,.31,1.87v1.27A4.87,4.87,0,0,1,57,30a2.37,2.37,0,0,1-2.35,1.57A2.09,2.09,0,0,1,53.43,31.24Z"/><path class="cls-2" d="M64,31.47V26.23l.18.2-3.19,5H59.2V23.56h2v5.37l-.19-.2,3.21-5.17H66v7.91Z"/><path class="cls-2" d="M67.62,29.53a1,1,0,0,0,.78-.31,1.29,1.29,0,0,0,.28-.9V23.56h1.95v5a3.67,3.67,0,0,1-.33,1.63,2.33,2.33,0,0,1-1,1,3.14,3.14,0,0,1-1.55.36h-.15Zm2.18-6h4.11v2H69.8Zm2.91,0H74.8v7.92H72.71Z"/><path class="cls-2" d="M78.27,31.19A2.72,2.72,0,0,1,77.1,30a4.12,4.12,0,0,1-.4-1.86V26.86A4.07,4.07,0,0,1,77.1,25a2.68,2.68,0,0,1,1.17-1.16,4.48,4.48,0,0,1,3.7,0A2.68,2.68,0,0,1,83.14,25a4.07,4.07,0,0,1,.4,1.85v1.31a4,4,0,0,1-.4,1.85A2.75,2.75,0,0,1,82,31.19a4.48,4.48,0,0,1-3.7,0Zm2.83-2a1.47,1.47,0,0,0,.35-1V26.86a1.43,1.43,0,0,0-.35-1,1.3,1.3,0,0,0-1-.37,1.26,1.26,0,0,0-1,.37,1.43,1.43,0,0,0-.35,1v1.31a1.47,1.47,0,0,0,.35,1,1.24,1.24,0,0,0,1,.37A1.3,1.3,0,0,0,81.1,29.21Z"/><path class="cls-2" d="M86.67,27.34l1.9.8-2.19,3.34H84Zm-2.21-3.78h2.18l2,3.37-1.4,1.37Zm2.43,3h5.68v2H86.89Zm1.79-3h2.09v7.92H88.68Zm2.14,3.37,2-3.37H95L92.22,28.3Zm.07,1.21,1.9-.8,2.67,4.14H93.08Z"/><path class="cls-2" d="M98.4,31.59l-.81-.41A2.81,2.81,0,0,1,96.35,30a4,4,0,0,1-.43-1.91v-.9a4.51,4.51,0,0,1,.41-2,2.82,2.82,0,0,1,1.19-1.27,3.83,3.83,0,0,1,1.89-.43,3,3,0,0,1,1.78.52,3.17,3.17,0,0,1,1.12,1.5,6.5,6.5,0,0,1,.39,2.39v.51H97.28V27h3.51l0-.18a1.81,1.81,0,0,0-.44-1.06,1.19,1.19,0,0,0-.92-.37,1.51,1.51,0,0,0-1.17.45,1.79,1.79,0,0,0-.42,1.27v1a1.65,1.65,0,0,0,.46,1.25,1.75,1.75,0,0,0,1.27.44,2.43,2.43,0,0,0,.83-.15,2.58,2.58,0,0,0,.74-.42l1.37,1.21a4.29,4.29,0,0,1-1.39.87,4,4,0,0,1-1.55.31Z"/><path class="cls-2" d="M104.53,23.56h2.09v7.92h-2.09Zm1.12,3.06h4.85v1.94h-4.85Zm3.65-3.06h2.09v7.92H109.3Z"/><path class="cls-2" d="M118.35,31.47V26.23l.18.2-3.2,5h-1.8V23.56h2v5.37l-.18-.2,3.21-5.17h1.79v7.91Z"/><path class="cls-2" d="M124.73,31.59l-.81-.41A2.81,2.81,0,0,1,122.68,30a3.93,3.93,0,0,1-.43-1.91v-.9a4.51,4.51,0,0,1,.41-2,2.82,2.82,0,0,1,1.19-1.27,3.83,3.83,0,0,1,1.89-.43,3,3,0,0,1,1.77.52,3.13,3.13,0,0,1,1.13,1.5,6.51,6.51,0,0,1,.38,2.39v.51h-5.41V27h3.51l0-.18a1.81,1.81,0,0,0-.43-1.06,1.19,1.19,0,0,0-.92-.37,1.49,1.49,0,0,0-1.17.45,1.79,1.79,0,0,0-.42,1.27v1a1.68,1.68,0,0,0,.45,1.25,1.78,1.78,0,0,0,1.27.44,2.39,2.39,0,0,0,.83-.15,2.5,2.5,0,0,0,.75-.42l1.37,1.21a4.4,4.4,0,0,1-1.39.87,4.06,4.06,0,0,1-1.56.31Z"/><path class="cls-2" d="M34.65,21v1.59s0,.07,0,.11a13,13,0,0,1-.41,2.48,13.5,13.5,0,0,1-14.6,10,13.23,13.23,0,0,1-5.39-1.82,13.48,13.48,0,0,1,8.92-24.9,13.05,13.05,0,0,1,7.21,3.48,13.28,13.28,0,0,1,4.23,8.44Z"/><path d="M29.83,11.44A13,13,0,0,1,31,12.51a13.19,13.19,0,0,1,1.75,2.32,13.44,13.44,0,0,1,1.32,3,10.81,10.81,0,0,1,.37,1.49c.07.41.12.81.17,1.22a1.34,1.34,0,0,0,0,.35v1.93a.75.75,0,0,0,0,.33,11.92,11.92,0,0,1-.33,2A15.25,15.25,0,0,1,33.63,27a13,13,0,0,1-1.35,2.46c-.34.47-.71.93-1.09,1.37s-.6.61-.9.91a15.36,15.36,0,0,1-1.4,1.13,15.51,15.51,0,0,1-1.34.82,13,13,0,0,1-1.7.77,12.36,12.36,0,0,1-1.46.46,11.57,11.57,0,0,1-1.54.28c-.35,0-.71.07-1.06.09s-.75,0-1.12,0a2.37,2.37,0,0,1-.53,0s-.07,0-.05-.07a1.14,1.14,0,0,0-.19-.72s-.06-.05,0-.09.07,0,.09,0a14.44,14.44,0,0,0,1.74,0c.44,0,.88-.07,1.31-.12a14.16,14.16,0,0,0,1.69-.37,12.25,12.25,0,0,0,3.74-1.83,10.11,10.11,0,0,0,1.14-.91c.25-.23.49-.46.72-.7a13,13,0,0,0,1.16-1.41,12.45,12.45,0,0,0,2.09-4.84,15.55,15.55,0,0,0,.21-1.67,10.75,10.75,0,0,0,0-1.39A13.54,13.54,0,0,0,33.21,18,12.7,12.7,0,0,0,32.35,16a12.38,12.38,0,0,0-1.46-2.18c-.32-.39-.67-.76-1-1.11a.55.55,0,0,0-.09-.07C29.8,12.2,29.82,11.83,29.83,11.44Z"/><path d="M17.49,26.88a1.57,1.57,0,0,0-1.3.42,1.59,1.59,0,0,0-.54,1.24,1.5,1.5,0,0,0,0,.37c0,.09,0,.11-.07.11a1.52,1.52,0,0,0-.67.1,1.61,1.61,0,0,0-.33.2c-.07.05-.09.05-.14,0a3.15,3.15,0,0,0-1.55-1.16A3.58,3.58,0,0,0,11.77,28a1.35,1.35,0,0,0-.28,0,.14.14,0,0,1-.18-.07,10.68,10.68,0,0,1-1-2,11.73,11.73,0,0,1-.65-2.44,9.28,9.28,0,0,1-.1-1.06c0-.33,0-.66,0-1a12.85,12.85,0,0,1,.12-1.38A11.93,11.93,0,0,1,10.17,18a10.84,10.84,0,0,1,1.11-2.3,11.46,11.46,0,0,1,1.37-1.79,11.71,11.71,0,0,1,2.88-2.25,11.89,11.89,0,0,1,2.91-1.14,13.51,13.51,0,0,1,1.44-.24,10.72,10.72,0,0,1,1.79-.06,11.05,11.05,0,0,1,1.51.16,10.82,10.82,0,0,1,1.25.3s0,0,0,0a2.15,2.15,0,0,0-.45.4c-.06,0-.07,0-.11.05l-.23.21a13.71,13.71,0,0,0-1.23,1.18,21.83,21.83,0,0,0-1.47,1.74,20.78,20.78,0,0,0-1.51,2.23,21.32,21.32,0,0,0-1.18,2.21c-.17.39-.35.79-.51,1.19a4,4,0,0,0-1,.16,7,7,0,0,0-4,2.51,7.21,7.21,0,0,0-1.39,2.88c0,.14-.05.3-.09.46l.06,0a7.19,7.19,0,0,1,3.81-1.47,5.06,5.06,0,0,1,1.1,0,.8.8,0,0,1,.34,0,5.38,5.38,0,0,1-.07.69c0,.07,0,.12.08.14a.78.78,0,0,1,.25.07c.05,0,.1,0,.14.07s-.19.33-.3.49,0,.09,0,.12l.94.56s0,0,.08,0v0C17.58,26.68,17.53,26.77,17.49,26.88Zm-2.95,1.05a.69.69,0,0,0,.7-.69.68.68,0,0,0-.7-.7.72.72,0,0,0-.7.7A.68.68,0,0,0,14.54,27.93Z"/><path d="M29.64,13.78c0,.12.11.19.16.26a9.53,9.53,0,0,1,1,1.35A11.61,11.61,0,0,1,32.64,20a14.58,14.58,0,0,1,.13,1.47c0,.34,0,.67,0,1a10.13,10.13,0,0,1-.23,1.73,11.48,11.48,0,0,1-1.09,3,12.25,12.25,0,0,1-1.28,1.91,9.35,9.35,0,0,1-.89,1,12,12,0,0,1-2.37,1.78,12.45,12.45,0,0,1-2.18,1,9.7,9.7,0,0,1-1.83.42c-.42.07-.86.09-1.3.13a10.89,10.89,0,0,1-1.14,0,6,6,0,0,1-.72-.07c-.09,0,0,0,0-.09a1.24,1.24,0,0,0,.21-.52,1.09,1.09,0,0,0-.26-.87,1.13,1.13,0,0,0-1.33-.31,1.11,1.11,0,0,0-.39.28c0,.05-.07.05-.1,0a2.34,2.34,0,0,0-.83-.39c-.09,0-.07-.07,0-.12a1.47,1.47,0,0,0,.17-.77c0-.11,0-.2,0-.3s0-.09.07-.09a1.53,1.53,0,0,0,1.15-.33A1.59,1.59,0,0,0,19,28.39a1.23,1.23,0,0,0-.22-.69l.26-.31.91.54c.16.09.16.11.25-.05a1.7,1.7,0,0,0,.24-.44.15.15,0,0,1,.11,0,2.08,2.08,0,0,1,.21.21c.05.09.11.07.18,0s.38-.26.57-.38a7.71,7.71,0,0,1,.44.72,7.06,7.06,0,0,1,.86,4.31c0,.09,0,.18,0,.3s.09,0,.1-.09A6.53,6.53,0,0,0,24,31.37a7.13,7.13,0,0,0,.88-7.2s0-.09-.07-.09c.37-.4.69-.86,1-1.29s.65-1,1-1.46a18.09,18.09,0,0,0,.92-1.67c.19-.37.35-.75.52-1.12.27-.62.51-1.23.72-1.86a16.84,16.84,0,0,0,.53-2c0-.11.09-.21,0-.33s0,0,0-.06A3.33,3.33,0,0,1,29.64,13.78Z"/><path d="M25.43,9.92a11.4,11.4,0,0,0-1.9-.53c-.47-.09-1-.14-1.42-.19s-.91,0-1.37,0a12.36,12.36,0,0,0-2.44.33,12.86,12.86,0,0,0-2.53.88A12.09,12.09,0,0,0,13.21,12a10.88,10.88,0,0,0-1.35,1.28,12.17,12.17,0,0,0-1.81,2.53,13.25,13.25,0,0,0-1.2,3.12,13.57,13.57,0,0,0-.24,1.42c0,.3,0,.62-.07.92s0,.49,0,.75c0,.53.05,1,.12,1.57A13.74,13.74,0,0,0,9.26,26a11.89,11.89,0,0,0,1.07,2.25c.05.09,0,.12,0,.16a2,2,0,0,0-.52.4c-.07.07-.11.07-.16,0a14.54,14.54,0,0,1-.88-1.71,12.15,12.15,0,0,1-.67-2C8,24.77,7.89,24.4,7.84,24s-.09-.68-.13-1a12.55,12.55,0,0,1-.07-1.6,9.28,9.28,0,0,1,.14-1.58,13.92,13.92,0,0,1,.67-2.67,12.19,12.19,0,0,1,1-2.07,13.8,13.8,0,0,1,.86-1.34c.26-.35.54-.68.82-1s.58-.61.88-.89a13.19,13.19,0,0,1,2-1.51c.4-.25.82-.49,1.24-.71a14.34,14.34,0,0,1,2.44-.91c.39-.1.79-.19,1.18-.26A11.13,11.13,0,0,1,20,8.32c.63-.05,1.24-.05,1.88,0a10,10,0,0,1,1.63.2c.35.07.68.12,1,.21a13.65,13.65,0,0,1,1.74.58c.05,0,.1.05.15.05C26.08,9.53,25.76,9.72,25.43,9.92Z"/><path class="cls-3" d="M29.64,13.78l-.1.54s0,.06,0,.06c-.53-.37-1.05-.71-1.6-1.06-.38-.24-.75-.47-1.16-.7,0,0,0,0,0,0s.07-.05.09-.08l.77-1.3c.42-.7.83-1.41,1.25-2.13a7.82,7.82,0,0,0,.45-.8c.07,0,.07,0,.09.05a9.17,9.17,0,0,1,.28,1.12,8.64,8.64,0,0,1,.16,1.69.77.77,0,0,0,0,.3l-.06,1.14-.1.95A1.1,1.1,0,0,1,29.64,13.78Z"/><path class="cls-4" d="M29.29,8.28c-.14.28-.3.55-.46.81-.42.7-.82,1.41-1.24,2.13-.27.43-.51.86-.78,1.29a.12.12,0,0,1-.08.09l-.09,0c-.9-.53-1.81-1-2.72-1.48a4.28,4.28,0,0,1,.45-.4s0,0,0,0l1-.72c.33-.19.67-.38,1-.59a11,11,0,0,1,2-.86A5.34,5.34,0,0,1,29.29,8.28Z"/><path class="cls-3" d="M19,27.39l-.26.31a13.25,13.25,0,0,1-1,1.07,6.77,6.77,0,0,1-.65.48c-.06,0-.11.05-.07-.06.19-.26.33-.56.5-.84.41-.7.83-1.39,1.23-2.09.57-1,1.13-1.93,1.71-2.9s1-1.65,1.45-2.47a1.65,1.65,0,0,0,.2-.37l.08-.07s0,.05,0,.07a3.84,3.84,0,0,1-.12.91,13.21,13.21,0,0,1-1.14,3,24.35,24.35,0,0,1-1.35,2.25l-.27.35A1.23,1.23,0,0,0,19,27.39Z"/><path class="cls-4" d="M22,20.56a1,1,0,0,1-.19.36c-.5.83-1,1.65-1.46,2.48s-1.12,1.93-1.7,2.9c-.41.7-.83,1.38-1.23,2.09a8.94,8.94,0,0,1-.51.84A5,5,0,0,1,17.16,28c.09-.35.23-.7.33-1.05.05-.1.09-.21.14-.31a8.75,8.75,0,0,0,.37-.83.13.13,0,0,0,0-.07,17.21,17.21,0,0,1,1.44-2.46,12.1,12.1,0,0,1,1.77-2.09A3,3,0,0,1,22,20.56Z"/><path class="cls-5" d="M22,20.56a3.26,3.26,0,0,0-.79.59,11.74,11.74,0,0,0-1.77,2.09A17.53,17.53,0,0,0,18,25.7a.13.13,0,0,0,0,.07h0a6.94,6.94,0,0,0-1.1-.42c0-.07-.09-.05-.13-.07a.84.84,0,0,0-.24-.07c-.09,0-.11-.05-.09-.12,0-.23,0-.46.07-.69a.23.23,0,0,0,0-.16,16.62,16.62,0,0,1,.54-2.54c.18-.62.39-1.21.62-1.81.15-.41.31-.79.5-1.2a24.72,24.72,0,0,1,1.18-2.21,25.66,25.66,0,0,1,1.51-2.23c.46-.59,1-1.17,1.48-1.74a13.49,13.49,0,0,1,1.22-1.17l.23-.21s.06-.06.11-.06c.93.46,1.82,1,2.72,1.48,0,0,.05,0,.09,0s0,0,0,0a.63.63,0,0,0-.1.12l-.79,1.35a1.42,1.42,0,0,0-.23.46h0l-.08-.05a2.54,2.54,0,0,0-1.64-.23,2.48,2.48,0,0,0-.79,4.55,1.64,1.64,0,0,1-.16.28l-.57,1a1.6,1.6,0,0,0-.22.41A.13.13,0,0,0,22,20.56Z"/><path class="cls-4" d="M17.67,19.87c-.23.6-.44,1.19-.62,1.81a18.34,18.34,0,0,0-.54,2.55c0,.05,0,.12,0,.15a3.26,3.26,0,0,0-.33-.05,6.86,6.86,0,0,0-1.11,0,7.14,7.14,0,0,0-1.7.35,7.43,7.43,0,0,0-2.11,1.13l-.05,0c0-.18.05-.32.09-.46a6.9,6.9,0,0,1,1.39-2.88,7.11,7.11,0,0,1,4-2.51C17,19.94,17.32,19.89,17.67,19.87Z"/><path class="cls-6" d="M16.88,25.35a5.92,5.92,0,0,1,1.1.42.32.32,0,0,1,0,.09,7.45,7.45,0,0,0-.32.7s-.05,0-.07,0L16.61,26c-.07,0-.07-.07,0-.12A3.11,3.11,0,0,1,16.88,25.35Z"/><path class="cls-7" d="M17.63,26.54a4.88,4.88,0,0,1,.32-.7.24.24,0,0,0,0-.09h0a7.54,7.54,0,0,1-.37.83Z"/><path class="cls-8" d="M25.62,14.55a1.8,1.8,0,0,1,.23-.46c.26-.45.53-.89.79-1.35a.63.63,0,0,1,.1-.12c.41.21.78.46,1.16.7.55.34,1.07.69,1.6,1.06.05.12,0,.22,0,.33a19.07,19.07,0,0,1-.53,2,17.44,17.44,0,0,1-.72,1.86c-.16.38-.33.75-.53,1.12-.28.56-.59,1.12-.91,1.67s-.61,1-1,1.46a15.47,15.47,0,0,1-1,1.29l-.06.07a19.81,19.81,0,0,1-2.68,2.66c-.21.15-.42.33-.62.49s-.38.26-.58.38-.1.06-.17,0a1.39,1.39,0,0,0-.21-.21.13.13,0,0,0-.11,0,10.27,10.27,0,0,0-.88-.75,16.61,16.61,0,0,0,1.36-2.25,13,13,0,0,0,1.14-3,4.06,4.06,0,0,0,.12-.91s0-.05,0-.07.14-.27.21-.41l.58-1A1.87,1.87,0,0,0,23,18.8h0a2.31,2.31,0,0,0,1.45.35,2.47,2.47,0,0,0,1.11-4.6Z"/><path class="cls-3" d="M21.44,27.32c.21-.16.42-.32.62-.5a18.65,18.65,0,0,0,2.68-2.65.22.22,0,0,0,.06-.07c.05,0,.05,0,.07.09a7.45,7.45,0,0,1,.54,2A7.08,7.08,0,0,1,24,31.37a6.23,6.23,0,0,1-1.16,1.19s0,.06-.11.09,0-.21,0-.3A7.13,7.13,0,0,0,21.9,28C21.76,27.79,21.58,27.56,21.44,27.32Z"/><path class="cls-6" d="M19.51,26.67a7.91,7.91,0,0,1,.88.75,2.46,2.46,0,0,1-.25.44c-.08.16-.08.16-.24.05L19,27.37a1.62,1.62,0,0,1,.27-.35Z"/><path class="cls-3" d="M25.62,14.55a2.58,2.58,0,0,1,1.05,1.23,2.48,2.48,0,0,1-2.14,3.41,2.39,2.39,0,0,1-1.45-.35l.21-.37a.77.77,0,0,1,.17-.27,1.82,1.82,0,0,0,1,.25,1.73,1.73,0,0,0,1-3,.54.54,0,0,0-.26-.16s0,0,0,0a4.18,4.18,0,0,0,.37-.65Z"/><path class="cls-4" d="M25.59,14.53a5.19,5.19,0,0,1-.37.65.77.77,0,0,1-.16-.07,1.79,1.79,0,0,0-1-.1,1.73,1.73,0,0,0-1.36,1.91,1.62,1.62,0,0,0,.81,1.25v0a.73.73,0,0,0-.17.26l-.21.37h0a2.48,2.48,0,0,1,.79-4.55,2.47,2.47,0,0,1,1.63.23A.35.35,0,0,1,25.59,14.53Z"/><path class="cls-9" d="M23.48,18.19v0c.12-.21.24-.42.37-.62.4-.7.82-1.38,1.24-2.09.06-.08.07-.19.16-.24a.92.92,0,0,1,.27.16A1.75,1.75,0,0,1,26,17.22a1.72,1.72,0,0,1-1.51,1.19A1.75,1.75,0,0,1,23.48,18.19Z"/><path class="cls-10" d="M25.23,15.22a.47.47,0,0,0-.15.24l-1.25,2.09-.37.62a1.6,1.6,0,0,1-.81-1.25A1.71,1.71,0,0,1,24,15a1.52,1.52,0,0,1,1,.1.77.77,0,0,0,.16.07S25.23,15.2,25.23,15.22Z"/><path d="M35.74,14.36a1,1,0,0,1-.21-.21l.24.3a7.29,7.29,0,0,1-.54-1,9.4,9.4,0,0,0-.91-1.17l.23.31a1.69,1.69,0,0,1-.19-.32l.15.36a.74.74,0,0,1,0-.14,1.59,1.59,0,0,0-.69-.9,1.61,1.61,0,0,0-1.16-.15,1.55,1.55,0,0,0-.9.69,1.61,1.61,0,0,0-.15,1.16,3.18,3.18,0,0,0,.66,1.16c.14.17.3.33.44.5l-.23-.3a4.24,4.24,0,0,1,.44.81,3.53,3.53,0,0,0,.73,1,1.62,1.62,0,0,0,1.07.43,1.49,1.49,0,0,0,1.5-1.5,1.54,1.54,0,0,0-.44-1.06Z"/><path d="M34.16,17.72a.72.72,0,0,1-.37-.45,1.8,1.8,0,0,1,.05.19c0,.15.09.31.14.46l.28,1c.05.15.08.31.12.47.12.44,0-.21,0,.21s0,.66,0,1l0,4.19a1.5,1.5,0,0,0,3,0c0-1.6,0-3.21,0-4.81A9.81,9.81,0,0,0,37,17.51a3.65,3.65,0,0,0-1.31-2.38,1.52,1.52,0,0,0-2.05.54,1.54,1.54,0,0,0,.54,2Z"/><path d="M25.85,9.24h0l-.4,0h.07l-.4,0h.06l-.36-.15.05,0-.31-.23,0,0a1.11,1.11,0,0,0,.48.31,1.27,1.27,0,0,0,.58.13,1.29,1.29,0,0,0,.58-.13,1.24,1.24,0,0,0,.48-.31L27,8.6a1.42,1.42,0,0,0,.21-.75l-.06-.4a1.45,1.45,0,0,0-.38-.66v0l-.32-.24,0,0A2.54,2.54,0,0,0,26,6.35h0a3,3,0,0,0-.43-.06H25.5l-.39,0h-.06a1.06,1.06,0,0,0-.51.27,1,1,0,0,0-.38.42,1.12,1.12,0,0,0-.18.55,1.12,1.12,0,0,0,0,.6l.15.36a1.4,1.4,0,0,0,.54.54l.35.15a1.55,1.55,0,0,0,.8,0Z"/><path d="M9.24,26.85c-.07-.09-.13-.2-.2-.3s0-.11,0,.11L9,26.49a5.43,5.43,0,0,1-.16-.67c-.11-.51-.21-1-.29-1.54l.06.39c-.12-.88,0-1.77-.21-2.65a1.51,1.51,0,0,0-1.85-1,1.53,1.53,0,0,0-1,1.84l0,.19,0-.4c0,.45,0,.91,0,1.36a14.88,14.88,0,0,0,.22,1.65,6.45,6.45,0,0,0,.88,2.75,1.62,1.62,0,0,0,.89.69,1.56,1.56,0,0,0,1.16-.15,1.53,1.53,0,0,0,.54-2.06Z"/></g></g></svg>