<svg width="280" height="5" viewBox="0 0 280 5" fill="none" xmlns="http://www.w3.org/2000/svg">
<path d="M6.91342 5L13.8268 0H0L6.91342 5Z" fill="#F7F4F4"/>
<path d="M20.9225 5L27.836 0H14.0091L20.9225 5Z" fill="#F7F4F4"/>
<path d="M34.9316 5L41.8451 0H28.0182L34.9316 5Z" fill="#F7F4F4"/>
<path d="M48.9408 5L55.8542 0H42.0273L48.9408 5Z" fill="#F7F4F4"/>
<path d="M62.9499 5L69.8633 0H56.0365L62.9499 5Z" fill="#F7F4F4"/>
<path d="M76.959 5L83.8724 0H70.0456L76.959 5Z" fill="#F7F4F4"/>
<path d="M90.9681 5L97.8815 0H84.0547L90.9681 5Z" fill="#F7F4F4"/>
<path d="M104.977 5L111.891 0H98.0638L104.977 5Z" fill="#F7F4F4"/>
<path d="M118.986 5L125.9 0H112.073L118.986 5Z" fill="#F7F4F4"/>
<path d="M132.995 5L139.909 0H126.082L132.995 5Z" fill="#F7F4F4"/>
<path d="M147.005 5L153.918 0H140.091L147.005 5Z" fill="#F7F4F4"/>
<path d="M161.014 5L167.927 0H154.1L161.014 5Z" fill="#F7F4F4"/>
<path d="M175.023 5L181.936 0H168.109L175.023 5Z" fill="#F7F4F4"/>
<path d="M189.032 5L195.945 0H182.118L189.032 5Z" fill="#F7F4F4"/>
<path d="M203.041 5L209.954 0H196.128L203.041 5Z" fill="#F7F4F4"/>
<path d="M217.05 5L223.964 0H210.137L217.05 5Z" fill="#F7F4F4"/>
<path d="M231.059 5L237.973 0H224.146L231.059 5Z" fill="#F7F4F4"/>
<path d="M245.068 5L251.982 0H238.155L245.068 5Z" fill="#F7F4F4"/>
<path d="M259.077 5L265.991 0H252.164L259.077 5Z" fill="#F7F4F4"/>
<path d="M273.087 5L280 0H266.173L273.087 5Z" fill="#F7F4F4"/>
</svg>
