<svg width="50" height="17" viewBox="0 0 50 17" fill="none" xmlns="http://www.w3.org/2000/svg">
<path d="M46.5203 1.16943H43.4205C42.4834 1.16943 41.7625 1.45779 41.3299 2.39494L35.4187 15.8755H39.5998C39.5998 15.8755 40.3207 14.0732 40.4649 13.6407C40.8974 13.6407 45.0064 13.6407 45.5832 13.6407C45.7273 14.1453 46.0878 15.8034 46.0878 15.8034H49.8364L46.5203 1.16943ZM41.6183 10.613C41.9787 9.74794 43.2042 6.50397 43.2042 6.50397C43.2042 6.57606 43.5647 5.63891 43.7089 5.13429L43.9972 6.43188C43.9972 6.43188 44.7902 9.96421 44.9344 10.6851H41.6183V10.613Z" fill="#3362AB"/>
<path d="M35.7072 11.046C35.7072 14.0737 32.9678 16.0922 28.7146 16.0922C26.9124 16.0922 25.1823 15.7317 24.2451 15.2992L24.8218 11.9831L25.3264 12.1994C26.624 12.7761 27.4891 12.9924 29.075 12.9924C30.2284 12.9924 31.454 12.5598 31.454 11.5506C31.454 10.9018 30.9493 10.4693 29.3634 9.74839C27.8495 9.02751 25.8311 7.87409 25.8311 5.78353C25.8311 2.9 28.6425 0.953613 32.6074 0.953613C34.1212 0.953613 35.4188 1.24197 36.2118 1.60241L35.6351 4.77429L35.3467 4.48594C34.6258 4.19759 33.6887 3.90923 32.319 3.90923C30.8052 3.98132 30.0843 4.63012 30.0843 5.20682C30.0843 5.85562 30.9493 6.36024 32.319 7.00903C34.6258 8.09036 35.7072 9.31586 35.7072 11.046Z" fill="#3362AB"/>
<path d="M0.527832 1.31374L0.59992 1.02539H6.79952C7.66458 1.02539 8.31337 1.31374 8.52964 2.25089L9.89931 8.73884C8.52964 5.2786 5.35775 2.46716 0.527832 1.31374Z" fill="#F9B50B"/>
<path d="M18.6222 1.17023L12.3505 15.8042H8.09734L4.49292 3.54915C7.0881 5.20718 9.25075 7.80236 10.0437 9.60457L10.4763 11.1184L14.369 1.09814H18.6222V1.17023Z" fill="#3362AB"/>
<path d="M20.2802 1.09814H24.245L21.7219 15.8042H17.7571L20.2802 1.09814Z" fill="#3362AB"/>
</svg>
